<?xml version="1.0" encoding="UTF-8"?>
<svg id="_레이어_1" data-name="레이어 1" xmlns="http://www.w3.org/2000/svg" version="1.1" viewBox="0 0 283.46 439.37">
  <defs>
    <style>
      .cls-1 {
        fill: #3e3a39;
        stroke-width: 0px;
      }

      .cls-2 {
        stroke: #3e3a39;
      }

      .cls-2, .cls-3 {
        fill: none;
      }

      .cls-2, .cls-3, .cls-4 {
        stroke-miterlimit: 10;
      }

      .cls-3 {
        stroke: #888;
        stroke-width: .5px;
      }

      .cls-5 {
        fill: #595757;
        font-family: AppleSDGothicNeo-Regular-KSCpc-EUC-H, 'Apple SD Gothic Neo';
        font-size: 7px;
      }

      .cls-4 {
        fill: #fff;
        stroke: #595757;
      }
    </style>
  </defs>
  <line class="cls-3" x1="27.45" y1="172.22" x2="255.71" y2="172.22"/>
  <line class="cls-3" x1="27.45" y1="266.14" x2="255.71" y2="266.14"/>
  <line class="cls-3" x1="54.77" y1="149.34" x2="54.77" y2="289.31"/>
  <line class="cls-3" x1="115.57" y1="149.34" x2="115.57" y2="289.31"/>
  <line class="cls-3" x1="221.5" y1="149.34" x2="221.5" y2="289.31"/>
  <circle class="cls-4" cx="115.57" cy="172.22" r="2.83"/>
  <circle class="cls-4" cx="115.57" cy="266.14" r="2.83"/>
  <text class="cls-5" transform="translate(120.85 184.02)"><tspan x="0" y="0">논현역</tspan></text>
  <text class="cls-5" transform="translate(120.85 156.1)"><tspan x="0" y="0">한남대교</tspan></text>
  <text class="cls-5" transform="translate(227.13 156.1)"><tspan x="0" y="0">동호대교</tspan></text>
  <text class="cls-5" transform="translate(60.57 278.82)"><tspan x="0" y="0">반포IC</tspan></text>
  <text class="cls-5" transform="translate(43.15 200.37)"><tspan x="0" y="0">경</tspan><tspan x="0" y="8.4">부</tspan><tspan x="0" y="16.8">고</tspan><tspan x="0" y="25.2">속</tspan><tspan x="0" y="33.6">도</tspan><tspan x="0" y="42">로</tspan></text>
  <text class="cls-5" transform="translate(120.85 278.82)"><tspan x="0" y="0">신논현역</tspan></text>
  <circle class="cls-4" cx="221.5" cy="172.22" r="2.83"/>
  <circle class="cls-1" cx="213.2" cy="218.02" r="2.13"/>
  <circle class="cls-2" cx="213.2" cy="218.02" r="4.25"/>
  <circle class="cls-4" cx="221.5" cy="266.14" r="2.83"/>
  <text class="cls-5" transform="translate(226.83 184.02)"><tspan x="0" y="0">학동역</tspan></text>
  <text class="cls-5" transform="translate(226.83 278.82)"><tspan x="0" y="0">언주역</tspan></text>
  <g>
    <g>
      <path class="cls-1" d="M164.41,227.36v-.28c.37-.01.61-.1.73-.25.12-.16.18-.47.18-.95v-6.11c0-.47-.06-.79-.18-.95-.12-.16-.36-.25-.73-.28v-.27h5.25l.08,2.01h-.19c-.06-.58-.18-.97-.35-1.17-.17-.21-.48-.31-.92-.31h-1.55c-.19,0-.31.03-.36.1-.05.07-.08.25-.08.54v2.44c0,.19.02.31.05.36.03.05.11.08.25.08h1.22c.48,0,.79-.09.94-.27.15-.18.23-.51.24-1.01h.19v3.12h-.19c-.02-.52-.11-.87-.25-1.05-.14-.18-.45-.27-.93-.27h-1.23c-.12,0-.2.02-.23.07-.04.05-.05.17-.05.36v2.72c0,.33.03.55.09.65.06.1.18.15.35.15h1.43c.58,0,1-.12,1.26-.37.26-.25.48-.72.68-1.42l.17.12-.48,2.23h-5.37Z"/>
      <path class="cls-1" d="M171.99,227.36v-.21h.04c.26,0,.44-.07.54-.22.1-.14.14-.42.14-.84v-4.51c0-.41-.05-.67-.14-.78-.09-.11-.29-.17-.57-.17v-.21s2.26,0,2.26,0v.21h-.04c-.26,0-.45.07-.55.21-.1.14-.15.39-.15.74v4.66c0,.31.03.5.09.58s.2.12.4.12h.86c.37,0,.67-.11.91-.34.24-.23.43-.58.58-1.07h.15l-.41,1.83h-4.11Z"/>
      <path class="cls-1" d="M178.24,227.36v-.21c.29,0,.48-.08.58-.2s.15-.37.15-.73v-4.65c0-.36-.05-.6-.15-.72-.1-.13-.29-.2-.58-.21v-.21h2.26v.21c-.3.02-.49.09-.59.21-.1.12-.14.36-.14.72v4.65c0,.36.05.6.15.73s.29.19.58.2v.21s-2.26,0-2.26,0Z"/>
      <path class="cls-1" d="M182.48,227.36v-.21c.3,0,.49-.07.59-.19.1-.12.15-.36.15-.73v-4.66c0-.36-.05-.6-.14-.72-.1-.12-.29-.19-.59-.21v-.21h4.25l.07,1.53h-.15c-.05-.44-.15-.74-.29-.9s-.39-.23-.74-.23h-1.26c-.15,0-.25.03-.29.08-.04.05-.07.19-.07.41v1.86c0,.14.01.23.04.27s.09.06.2.06h.99c.39,0,.64-.07.76-.2.12-.14.18-.39.2-.77h.15v2.38h-.15c-.02-.4-.09-.67-.2-.81-.12-.14-.37-.21-.76-.21h-1c-.1,0-.16.02-.19.06-.03.04-.04.13-.04.28v2.07c0,.25.02.42.07.5.05.08.14.11.28.11h1.16c.47,0,.81-.09,1.02-.28.21-.19.39-.55.55-1.08l.14.09-.39,1.7h-4.36Z"/>
      <path class="cls-1" d="M190.13,226.19c0,.39.05.63.14.74.09.11.29.18.58.21v.21h-1.79v-.21c.3-.03.49-.1.58-.21.09-.11.14-.36.14-.74v-4.85c-.1-.23-.2-.4-.31-.51-.11-.11-.25-.18-.41-.2v-.21h1.28l2.95,4.93v-3.77c0-.38-.05-.63-.14-.74-.09-.11-.28-.18-.58-.21v-.21h1.78v.21c-.29.03-.49.09-.58.21-.09.11-.14.36-.14.74v5.77h-.15l-3.36-5.59v4.43Z"/>
      <path class="cls-1" d="M195.98,227.36v-.28c.2,0,.36-.09.49-.25.13-.16.27-.47.41-.92l2.52-7.8h.21l2.44,7.94c.06.19.12.36.18.49s.13.24.19.32c.06.08.13.14.21.17.08.03.18.05.29.05v.26h-2.56v-.28c.26,0,.43-.06.53-.14.1-.09.15-.24.15-.45,0-.07,0-.14-.02-.21-.01-.07-.03-.14-.05-.21l-.52-1.72h-2.62l-.43,1.44c-.05.16-.09.3-.11.42-.02.12-.03.22-.03.3,0,.19.05.33.16.42.11.09.27.13.5.13h.06v.28h-2.01ZM198,223.84h2.34l-1.13-3.81-1.21,3.81Z"/>
    </g>
    <g>
      <path class="cls-1" d="M167.52,215.95v-.21c.3,0,.49-.07.59-.2.1-.12.15-.37.15-.73v-4.65c0-.36-.05-.6-.15-.72-.1-.13-.29-.2-.58-.21v-.21h2.25v.21c-.29.02-.49.09-.58.22-.09.12-.14.36-.14.72v1.73c0,.13.02.21.05.25.03.04.09.06.18.06h2.11c.08,0,.13-.02.15-.07.03-.04.04-.14.04-.28v-1.7c0-.35-.05-.59-.15-.72-.1-.13-.29-.2-.58-.21v-.21s2.25,0,2.25,0v.21c-.29,0-.48.08-.58.2-.1.12-.15.37-.15.73v4.65c0,.36.05.6.15.72.1.13.29.2.58.21v.21h-2.26v-.21c.29,0,.49-.08.59-.2s.15-.36.15-.72v-1.91c0-.13-.01-.22-.04-.26-.03-.04-.08-.06-.15-.06h-2.12c-.08,0-.14.02-.17.07-.03.05-.05.13-.05.25v1.9c0,.36.05.6.15.73.1.13.29.19.58.2v.21h-2.25Z"/>
      <path class="cls-1" d="M175.15,212.48c0-1.05.24-1.88.71-2.51.47-.63,1.09-.95,1.87-.95s1.4.32,1.87.95c.47.63.71,1.47.71,2.51s-.24,1.89-.71,2.52c-.47.63-1.09.95-1.87.95s-1.4-.32-1.87-.95c-.47-.63-.71-1.47-.71-2.52ZM176.01,212.48c0,.96.15,1.71.46,2.27.31.56.73.84,1.25.84s.94-.28,1.25-.84c.31-.56.46-1.32.46-2.27s-.15-1.7-.46-2.26c-.31-.56-.73-.84-1.25-.84s-.94.28-1.25.84c-.31.56-.46,1.31-.46,2.26Z"/>
      <path class="cls-1" d="M183.46,215.95v-.21c.31,0,.52-.07.61-.2.09-.13.14-.42.14-.87v-4.95c0-.15-.02-.23-.05-.26s-.12-.04-.26-.04h-.12c-.48,0-.81.1-.98.29s-.28.56-.32,1.09h-.15l.04-1.78h4.51v1.78h-.16c-.04-.54-.14-.91-.3-1.1-.16-.19-.52-.28-1.09-.28-.17,0-.26.02-.29.05s-.04.12-.04.26v4.91c0,.5.05.8.15.92.1.11.3.18.61.19v.21s-2.31,0-2.31,0Z"/>
      <path class="cls-1" d="M188.69,215.95v-.21c.3,0,.49-.07.59-.19.1-.12.15-.36.15-.73v-4.66c0-.36-.05-.6-.14-.72-.1-.12-.29-.19-.59-.21v-.21h4.25l.07,1.53h-.15c-.05-.44-.15-.74-.29-.9s-.39-.23-.74-.23h-1.26c-.15,0-.25.03-.29.08-.04.05-.07.19-.07.41v1.86c0,.14.01.23.04.27s.09.06.2.06h.99c.39,0,.64-.07.76-.2.12-.14.18-.39.2-.77h.15v2.38h-.15c-.02-.4-.09-.67-.2-.81-.12-.14-.37-.21-.76-.21h-1c-.1,0-.16.02-.19.06-.03.04-.04.13-.04.28v2.07c0,.25.02.42.07.5.05.08.14.11.28.11h1.16c.47,0,.81-.09,1.02-.28.21-.19.39-.55.55-1.08l.14.09-.39,1.7h-4.36Z"/>
      <path class="cls-1" d="M195.3,215.95v-.21h.04c.26,0,.44-.07.54-.22.1-.14.14-.42.14-.84v-4.51c0-.41-.05-.67-.14-.78-.09-.11-.29-.17-.57-.17v-.21s2.26,0,2.26,0v.21h-.04c-.26,0-.45.07-.55.21-.1.14-.15.39-.15.74v4.66c0,.31.03.5.09.58s.2.12.4.12h.86c.37,0,.67-.11.91-.34.24-.23.43-.58.58-1.07h.15l-.41,1.83h-4.11Z"/>
    </g>
  </g>
</svg>