<?xml version="1.0" encoding="UTF-8" standalone="no"?>
<!-- Created with Inkscape (http://www.inkscape.org/) -->

<svg
   version="1.1"
   id="svg2"
   width="666.66669"
   height="666.66669"
   viewBox="0 0 666.66669 666.66669"
   sodipodi:docname="9036247.ai"
   xmlns:inkscape="http://www.inkscape.org/namespaces/inkscape"
   xmlns:sodipodi="http://sodipodi.sourceforge.net/DTD/sodipodi-0.dtd"
   xmlns="http://www.w3.org/2000/svg"
   xmlns:svg="http://www.w3.org/2000/svg">
  <defs
     id="defs6">
    <clipPath
       clipPathUnits="userSpaceOnUse"
       id="clipPath18">
      <path
         d="M 0,500 H 500 V 0 H 0 Z"
         id="path16" />
    </clipPath>
  </defs>
  <sodipodi:namedview
     id="namedview4"
     pagecolor="#ffffff"
     bordercolor="#ffc9c9"
     borderopacity="0.25"
     inkscape:showpageshadow="2"
     inkscape:pageopacity="0.0"
     inkscape:pagecheckerboard="0"
     inkscape:deskcolor="#d1d1d1" />
  <g
     id="g8"
     inkscape:groupmode="layer"
     inkscape:label="9036247"
     transform="matrix(1.3333333,0,0,-1.3333333,0,666.66667)">
    <path
       d="M 0,0 H 500 V 500 H 0 Z"
       style="fill:none;fill-rule:nonzero;stroke:none"
       id="path10" />
    <g
       id="g12">
      <g
         id="g14"
         clip-path="url(#clipPath18)">
        <g
           id="g20"
           transform="translate(358.5967,386.7344)">
          <path
             d="m 0,0 c -0.061,-0.004 -0.102,-0.021 -0.107,-0.027 -0.006,-0.014 0.003,-0.02 0.025,-0.012 C -0.061,-0.034 -0.029,-0.016 0,0"
             style="fill:#ffc9c9;fill-opacity:1;fill-rule:nonzero;stroke:none"
             id="path22" />
        </g>
        <g
           id="g24"
           transform="translate(405.9551,337.6064)">
          <path
             d="m 0,0 c -0.83,-0.531 -2.136,-1.136 -3.859,-1.805 -1.747,-0.57 -3.928,-1.228 -6.519,-1.43 -1.292,-0.178 -2.672,-0.15 -4.137,-0.17 -1.454,0.095 -2.996,0.187 -4.574,0.489 -3.166,0.529 -6.549,1.513 -9.893,3.111 -3.342,1.583 -6.695,3.719 -9.671,6.604 -2.881,2.781 -5.371,6.016 -8.314,8.139 -0.356,0.292 -0.768,0.475 -1.149,0.722 l -0.58,0.35 -0.586,0.254 c -0.405,0.164 -0.742,0.356 -1.196,0.515 l -1.485,0.435 c -1.841,0.517 -3.863,0.923 -5.897,1.339 -2.032,0.44 -4.129,0.894 -6.209,1.579 -1.028,0.298 -2.105,0.75 -3.164,1.192 -0.534,0.219 -0.935,0.466 -1.408,0.697 l -0.682,0.352 -0.17,0.087 -0.14,0.079 -0.043,0.026 -0.087,0.055 -0.343,0.217 c -3.72,2.228 -6.855,5.366 -9.104,8.857 -2.252,3.515 -3.481,7.391 -4.089,11.05 -0.29,1.838 -0.455,3.631 -0.494,5.362 -0.015,1.73 0.046,3.394 0.181,4.978 0.26,3.172 0.81,6.022 1.386,8.512 0.571,2.492 1.228,4.617 1.792,6.353 0.555,1.739 1.084,3.074 1.427,3.987 0.356,0.908 0.545,1.392 0.545,1.392 0,0 -0.118,-0.506 -0.339,-1.456 -0.219,-0.95 -0.509,-2.347 -0.867,-4.123 -0.686,-3.549 -1.581,-8.666 -1.66,-14.771 -0.016,-3.046 0.227,-6.333 0.95,-9.671 0.744,-3.33 2.072,-6.677 4.101,-9.68 2.054,-2.99 4.877,-5.533 8.173,-7.492 l 0.306,-0.189 0.076,-0.048 0.02,-0.012 0.134,-0.067 0.686,-0.344 c 0.45,-0.214 0.936,-0.496 1.359,-0.654 0.849,-0.324 1.674,-0.676 2.637,-0.945 1.853,-0.589 3.823,-0.998 5.851,-1.411 2.026,-0.432 4.072,-0.863 6.206,-1.486 l 1.48,-0.452 c 0.518,-0.183 1.101,-0.464 1.643,-0.699 l 0.82,-0.377 0.736,-0.447 c 0.477,-0.31 1,-0.572 1.434,-0.927 1.863,-1.323 3.313,-2.926 4.68,-4.446 0.659,-0.756 1.314,-1.508 1.965,-2.255 l 0.48,-0.552 0.21,-0.236 0.252,-0.268 1.003,-1.068 c 0.174,-0.176 0.361,-0.334 0.538,-0.506 2.359,0.197 4.684,0.59 6.855,1.365 2.316,0.866 4.478,2.084 6.255,3.783 0.486,0.367 0.873,0.859 1.301,1.294 l 0.629,0.668 0.285,0.299 0.296,0.373 1.186,1.494 1.003,1.499 c 1.295,2.042 2.298,4.274 2.992,6.562 0.697,2.295 1,4.691 0.957,7.076 -0.051,2.385 -0.395,4.765 -1.023,7.083 -0.623,2.318 -1.522,4.573 -2.651,6.716 l -0.203,0.406 -0.051,0.102 -0.002,0.004 -0.012,0.021 -0.124,0.204 -0.489,0.818 -0.481,0.817 -0.494,0.688 c -0.613,0.919 -1.415,1.842 -2.197,2.724 -1.596,1.766 -3.472,3.292 -5.442,4.658 -1.982,1.355 -4.089,2.55 -6.304,3.488 -2.21,0.942 -4.505,1.699 -6.85,2.143 -1.174,0.192 -2.352,0.39 -3.534,0.435 l -0.884,0.065 -0.882,-0.005 -0.884,-0.002 h -0.221 -0.015 l -0.09,-0.011 -0.474,-0.055 c -1.852,-0.233 -3.717,-1.494 -4.742,-3.258 -1.04,-1.775 -1.26,-3.962 -0.641,-5.993 l 0.293,-0.749 0.073,-0.189 0.007,-0.019 0.027,-0.045 0.246,-0.408 c 0.16,-0.226 0.264,-0.357 0.425,-0.563 0.189,-0.197 0.347,-0.41 0.56,-0.602 0.799,-0.791 1.759,-1.515 2.769,-2.192 0.083,-0.057 0.172,-0.109 0.256,-0.165 l 0.006,0.028 c 0.061,0.301 0.118,0.614 0.195,0.926 0.089,0.305 0.222,0.599 0.34,0.907 0.264,0.604 0.638,1.174 1.098,1.696 0.231,0.258 0.502,0.479 0.763,0.721 0.277,0.214 0.578,0.403 0.878,0.599 0.62,0.348 1.29,0.607 1.976,0.784 0.688,0.154 1.39,0.257 2.084,0.249 0.693,0 1.384,-0.056 2.049,-0.203 0.67,-0.13 1.325,-0.318 1.947,-0.577 0.629,-0.244 1.234,-0.54 1.802,-0.899 1.146,-0.695 2.182,-1.584 3.023,-2.648 0.429,-0.524 0.798,-1.102 1.107,-1.712 0.318,-0.604 0.557,-1.257 0.724,-1.923 0.079,-0.335 0.153,-0.668 0.182,-1.013 0.046,-0.339 0.068,-0.68 0.049,-1.022 0,-0.34 -0.015,-0.676 -0.086,-1.009 -0.05,-0.332 -0.103,-0.658 -0.224,-0.971 -0.102,-0.315 -0.201,-0.622 -0.353,-0.91 -0.14,-0.292 -0.259,-0.578 -0.464,-0.843 -0.345,-0.559 -0.753,-0.97 -1.205,-1.389 0.076,0.602 0.204,1.211 0.212,1.748 0.01,0.545 0.039,1.087 -0.056,1.6 -0.062,0.51 -0.177,0.997 -0.337,1.455 -0.062,0.232 -0.169,0.452 -0.264,0.67 -0.081,0.221 -0.203,0.429 -0.321,0.633 -0.216,0.416 -0.496,0.799 -0.785,1.168 -0.287,0.37 -0.615,0.713 -0.955,1.042 -0.343,0.325 -0.708,0.634 -1.09,0.918 -0.384,0.281 -0.781,0.551 -1.197,0.787 -0.414,0.236 -0.838,0.459 -1.275,0.643 -0.436,0.187 -0.879,0.356 -1.328,0.483 -0.449,0.129 -0.902,0.241 -1.355,0.3 -0.453,0.065 -0.903,0.103 -1.351,0.087 -0.229,0.008 -0.441,-0.034 -0.67,-0.043 l -0.661,-0.115 c -0.43,-0.118 -0.866,-0.261 -1.288,-0.477 -0.421,-0.218 -0.83,-0.495 -1.24,-0.823 -0.304,-0.257 -0.588,-0.56 -0.876,-0.876 -0.049,-0.133 -0.098,-0.265 -0.158,-0.407 -0.016,-0.038 -0.042,-0.08 -0.064,-0.122 1.718,-1.087 3.544,-2.082 5.387,-3.175 l 0.06,-0.035 0.017,-0.011 c 1.377,-0.923 2.753,-1.855 4.123,-2.807 l 4.298,-2.548 4.475,-2.264 4.649,-1.933 0.744,-0.055 -0.756,-0.056 h -0.006 l -0.01,0.002 c -1.625,0.438 -3.264,0.867 -4.897,1.337 -1.583,0.593 -3.181,1.174 -4.772,1.787 l -4.616,2.187 c -1.488,0.825 -2.971,1.668 -4.451,2.522 l 0.076,-0.046 c -2.221,1.112 -4.593,2.141 -6.873,3.475 -1.136,0.68 -2.262,1.426 -3.322,2.368 -0.271,0.223 -0.519,0.502 -0.778,0.753 -0.252,0.275 -0.548,0.64 -0.761,0.927 l -0.268,0.394 -0.066,0.099 -0.034,0.05 c 0.005,-0.011 -0.027,0.045 -0.056,0.1 -0.079,-0.728 -0.143,-1.469 -0.21,-2.21 -0.141,-1.942 -0.281,-3.883 -0.413,-5.703 -0.127,-1.852 -0.299,-3.597 -0.504,-5.108 -0.214,-1.504 -0.455,-2.786 -0.675,-3.656 -0.214,-0.878 -0.382,-1.38 -0.382,-1.38 0,0 -0.178,0.499 -0.409,1.373 -0.235,0.88 -0.542,2.101 -0.841,3.599 -0.294,1.49 -0.559,3.247 -0.725,5.15 -0.066,0.957 -0.144,1.941 -0.134,2.959 -0.027,1.012 0.036,2.05 0.098,3.089 0.115,1.04 0.2,2.083 0.428,3.105 0.176,1.024 0.461,2.022 0.774,2.975 0.318,0.95 0.709,1.853 1.127,2.675 0.421,0.751 0.815,1.446 1.282,2.047 0.158,0.403 0.335,0.8 0.543,1.181 1.46,2.662 4.085,4.718 7.278,5.24 l 0.472,0.07 0.117,0.018 0.06,0.009 0.158,0.016 0.032,0.002 0.255,0.01 1.021,0.037 1.024,0.034 1.016,-0.048 c 1.361,-0.042 2.697,-0.247 4.03,-0.453 2.655,-0.476 5.222,-1.291 7.692,-2.314 2.477,-1.016 4.833,-2.312 7.016,-3.864 2.182,-1.546 4.257,-3.274 6.053,-5.297 0.891,-1.026 1.754,-2.031 2.543,-3.235 l 0.598,-0.874 0.477,-0.829 0.463,-0.832 0.117,-0.208 0.097,-0.184 0.053,-0.114 0.21,-0.452 c 1.162,-2.39 2.082,-4.915 2.696,-7.524 0.617,-2.605 0.944,-5.301 0.835,-7.997 -0.092,-2.693 -0.579,-5.381 -1.493,-7.908 -0.89,-2.541 -2.216,-4.876 -3.787,-7.023 l -1.241,-1.581 -1.29,-1.405 -0.322,-0.351 c -0.182,-0.179 -0.262,-0.24 -0.4,-0.365 l -0.74,-0.656 c -0.504,-0.426 -0.958,-0.9 -1.523,-1.257 -2.07,-1.638 -4.545,-2.769 -7.069,-3.375 -2.329,-0.571 -4.714,-0.642 -7.046,-0.525 2.405,-2.329 5.099,-4.302 7.876,-5.812 3.019,-1.626 6.087,-2.787 9.009,-3.524 2.922,-0.737 5.701,-1.067 8.166,-1.039 2.474,-0.037 4.616,0.319 6.375,0.665 1.725,0.457 3.103,0.835 3.98,1.248 C 0.807,0.566 1.29,0.757 1.29,0.757 1.29,0.757 0.841,0.494 0,0 m -43.82,-24.293 c -0.161,0.334 -0.362,0.745 -0.596,1.228 -0.28,0.456 -0.603,0.981 -0.963,1.567 -0.325,0.602 -0.828,1.183 -1.317,1.838 -0.472,0.67 -1.099,1.305 -1.728,2.003 -0.617,0.708 -1.419,1.333 -2.177,2.052 -0.856,0.624 -1.659,1.378 -2.649,1.984 -1.888,1.32 -4.114,2.485 -6.522,3.569 -2.419,1.07 -5.067,1.989 -7.858,2.767 -1.396,0.379 -2.835,0.739 -4.272,1.025 -0.705,0.161 -1.479,0.288 -2.242,0.423 -0.385,0.079 -0.751,0.132 -1.157,0.233 l -1.269,0.308 c -3.396,0.888 -6.506,2.938 -8.876,5.437 -2.363,2.543 -4.117,5.446 -5.548,8.35 -0.737,1.448 -1.351,2.918 -1.931,4.375 -0.279,0.727 -0.555,1.45 -0.831,2.168 l -0.398,1.056 -0.403,0.952 c -1.095,2.517 -2.61,4.776 -4.376,6.652 -1.772,1.868 -3.727,3.406 -5.673,4.623 -1.951,1.214 -3.879,2.138 -5.655,2.798 -1.768,0.687 -3.381,1.114 -4.721,1.438 -1.34,0.265 -2.414,0.496 -3.163,0.563 -0.743,0.096 -1.138,0.147 -1.138,0.147 0,0 0.398,0.024 1.145,0.069 0.743,0.061 1.848,0.079 3.267,0.004 1.403,-0.116 3.131,-0.272 5.057,-0.765 0.975,-0.203 1.978,-0.54 3.053,-0.87 1.048,-0.394 2.155,-0.819 3.259,-1.382 2.222,-1.086 4.539,-2.537 6.659,-4.508 2.122,-1.952 4.098,-4.395 5.48,-7.304 l 0.517,-1.095 0.447,-1.042 c 0.297,-0.683 0.596,-1.372 0.898,-2.064 0.622,-1.365 1.263,-2.738 1.951,-4.077 1.367,-2.685 2.997,-5.244 5.005,-7.338 0.999,-1.04 2.06,-2.014 3.254,-2.744 0.57,-0.416 1.212,-0.687 1.823,-1.016 0.312,-0.15 0.645,-0.25 0.964,-0.38 0.323,-0.123 0.64,-0.262 0.982,-0.33 l 1.001,-0.26 c 0.348,-0.095 0.753,-0.161 1.125,-0.244 0.758,-0.17 1.502,-0.325 2.286,-0.538 1.556,-0.383 3.042,-0.826 4.502,-1.294 2.923,-0.919 5.656,-2.126 8.145,-3.453 2.494,-1.318 4.737,-2.803 6.606,-4.426 0.972,-0.755 1.781,-1.64 2.588,-2.411 0.717,-0.875 1.46,-1.635 2.019,-2.47 0.564,-0.827 1.143,-1.556 1.518,-2.341 0.401,-0.763 0.814,-1.431 1.054,-2.106 0.271,-0.657 0.516,-1.237 0.704,-1.75 0.146,-0.528 0.269,-0.977 0.37,-1.341 0.191,-0.724 0.293,-1.11 0.293,-1.11 0,0 -0.177,0.359 -0.509,1.03 m 62.213,49.748 c -0.293,1.213 -1.314,1.418 -2.502,1.302 0.299,-0.063 0.466,-0.101 0.466,-0.101 0,0 -0.613,-0.049 -1.683,-0.1 C 14.153,26.444 13.548,26.328 12.865,26.15 12.178,25.91 11.413,25.676 10.603,25.296 9.784,24.965 8.93,24.49 8.002,24.04 7.082,23.568 6.111,23.038 5.052,22.553 4.525,22.319 3.992,22.08 3.451,21.838 2.927,21.6 2.396,21.359 1.861,21.116 0.82,20.64 -0.237,20.072 -1.266,19.492 -2.304,18.922 -3.32,18.31 -4.296,17.672 -5.257,17.014 -6.218,16.387 -7.094,15.708 -7.967,15.026 -8.8,14.354 -9.556,13.676 c -0.747,-0.687 -1.42,-1.365 -2.028,-2.014 -0.562,-0.678 -1.108,-1.292 -1.51,-1.893 -0.446,-0.578 -0.732,-1.141 -1.017,-1.588 -0.259,-0.459 -0.42,-0.843 -0.553,-1.098 -0.126,-0.26 -0.192,-0.398 -0.192,-0.398 0,0 0.026,0.15 0.077,0.433 0.064,0.278 0.096,0.714 0.258,1.23 0.18,0.508 0.336,1.169 0.69,1.842 0.298,0.708 0.734,1.45 1.237,2.249 0.273,0.384 0.557,0.783 0.852,1.197 0.309,0.402 0.661,0.789 1.008,1.204 0.719,0.801 1.514,1.615 2.403,2.38 0.889,0.762 1.822,1.532 2.836,2.228 1.014,0.691 2.064,1.361 3.146,1.978 1.102,0.592 2.199,1.152 3.345,1.647 0.572,0.267 1.131,0.475 1.679,0.673 0.545,0.203 1.083,0.403 1.611,0.601 1.057,0.416 2.077,0.818 3.043,1.2 0.721,0.272 1.411,0.514 2.092,0.72 0.734,0.997 1.404,2.051 1.967,3.217 2.667,5.407 2.29,9.604 1.816,15.526 -0.355,4.44 -2.754,10.77 -0.92,15.023 -2.759,-0.743 -5.74,-1.224 -8.638,-0.731 3.106,1.939 7.163,3.552 8.893,6.59 -13.921,3.395 -20.983,18.209 -31.305,26.442 -4.907,3.913 -11.637,5.709 -18.095,5.023 -0.244,-0.163 -0.477,-0.348 -0.749,-0.47 -0.573,-0.287 -1.154,-0.608 -1.754,-0.841 l -0.905,-0.35 c -0.303,-0.11 -0.6,-0.25 -0.913,-0.333 -0.617,-0.186 -1.237,-0.383 -1.86,-0.561 l -1.901,-0.437 c -0.641,-0.108 -1.288,-0.194 -1.935,-0.291 -0.322,-0.056 -0.653,-0.055 -0.98,-0.086 l -0.988,-0.067 c -0.328,-0.03 -0.667,0.007 -1.001,0.008 l -0.255,0.01 -0.206,-1.156 c -0.119,-0.623 -0.406,-1.204 -0.609,-1.811 -0.497,-1.171 -1.17,-2.284 -1.995,-3.236 -0.378,-0.517 -0.834,-0.941 -1.281,-1.379 -0.434,-0.455 -0.903,-0.859 -1.385,-1.24 -0.94,-0.81 -1.947,-1.49 -2.951,-2.162 -2.015,-1.333 -4.065,-2.521 -5.983,-3.825 -0.497,-0.309 -0.953,-0.653 -1.42,-0.988 -0.475,-0.327 -0.924,-0.676 -1.347,-1.049 -0.433,-0.364 -0.881,-0.717 -1.251,-1.13 -0.372,-0.411 -0.824,-0.767 -1.125,-1.225 -0.313,-0.448 -0.705,-0.85 -0.976,-1.323 l -0.776,-1.372 -0.651,-1.657 c -0.207,-0.549 -0.239,-1.031 -0.38,-1.55 -0.176,-1.041 -0.215,-2.154 -0.08,-3.251 0.141,-1.103 0.424,-2.211 0.771,-3.319 0.34,-1.114 0.728,-2.229 1.112,-3.358 0.4,-1.139 0.727,-2.269 1.052,-3.426 0.322,-1.151 0.612,-2.317 0.819,-3.5 0.101,-0.592 0.189,-1.19 0.195,-1.794 0.011,-0.598 -0.012,-1.222 -0.249,-1.774 0.151,0.579 0.082,1.174 -0.014,1.749 -0.103,0.577 -0.236,1.148 -0.401,1.712 -0.329,1.127 -0.738,2.232 -1.179,3.327 l -1.365,3.267 c -0.47,1.085 -0.951,2.178 -1.396,3.303 -0.431,1.131 -0.807,2.312 -1.04,3.551 -0.219,1.248 -0.286,2.53 -0.1,3.829 0.134,0.633 0.219,1.348 0.414,1.913 l 0.591,1.679 c 0.317,0.688 0.595,1.17 0.901,1.765 0.302,0.566 0.723,1.047 1.093,1.567 0.355,0.537 0.841,0.938 1.261,1.408 0.42,0.474 0.902,0.864 1.371,1.269 0.464,0.416 0.948,0.8 1.447,1.151 0.492,0.364 0.98,0.739 1.487,1.063 2.013,1.356 4.094,2.514 6.049,3.782 0.503,0.304 0.962,0.646 1.443,0.967 0.491,0.311 0.943,0.657 1.391,1.007 0.464,0.338 0.904,0.694 1.303,1.086 0.416,0.379 0.844,0.748 1.18,1.185 0.348,0.426 0.76,0.816 1.018,1.299 l 0.447,0.689 0.227,0.345 0.161,0.376 c 0.194,0.508 0.482,0.988 0.611,1.523 l 0.386,1.614 0.18,0.753 0.699,-0.068 0.904,-0.087 c 0.303,-0.024 0.602,-0.086 0.912,-0.081 l 0.927,-0.008 c 0.31,0.004 0.62,-0.024 0.931,0.005 0.623,0.045 1.249,0.077 1.873,0.13 l 1.874,0.229 c 0.62,0.106 1.237,0.23 1.86,0.344 0.314,0.048 0.611,0.151 0.919,0.226 0,0 -0.302,1.728 -0.803,2.383 -2.223,2.64 -3.615,6.435 -6.59,8.893 -11.009,8.782 -26.593,-7.282 -30.628,-17.226 -1.045,2.038 -3.111,3.438 -4.406,5.49 -0.407,-0.286 -0.977,-0.684 -1.7,-1.189 -0.764,-0.537 -1.74,-1.136 -2.725,-1.975 -1.005,-0.806 -2.138,-1.714 -3.375,-2.704 -1.201,-1.046 -2.502,-2.179 -3.876,-3.377 -1.354,-1.237 -2.754,-2.534 -4.266,-3.869 -1.469,-1.321 -2.874,-2.719 -3.897,-4.348 -1.032,-1.615 -1.533,-3.529 -1.673,-5.503 l -0.086,-1.598 c -0.024,-0.533 -0.034,-1.053 -0.12,-1.647 l -0.104,-0.862 -0.244,-0.88 c -0.098,-0.3 -0.136,-0.569 -0.289,-0.889 l -0.332,-0.716 c -0.397,-0.942 -0.996,-1.924 -1.362,-2.792 -0.444,-0.856 -0.646,-1.791 -0.859,-2.604 -0.112,-0.983 -0.288,-1.987 -0.34,-2.903 -0.009,-0.914 -0.116,-1.798 -0.052,-2.69 0.069,-0.888 0.065,-1.762 0.184,-2.596 0.12,-0.832 0.206,-1.646 0.344,-2.42 0.17,-0.767 0.333,-1.503 0.488,-2.203 0.163,-0.7 0.393,-1.343 0.568,-1.961 0.093,-0.309 0.183,-0.608 0.27,-0.895 0.109,-0.28 0.215,-0.55 0.314,-0.808 0.202,-0.523 0.387,-1.002 0.553,-1.436 0.369,-0.85 0.705,-1.501 0.913,-1.958 0.215,-0.454 0.331,-0.695 0.331,-0.695 0,0 -0.151,0.22 -0.434,0.633 -0.271,0.421 -0.73,1.008 -1.204,1.822 -0.225,0.414 -0.474,0.873 -0.745,1.372 -0.134,0.252 -0.275,0.514 -0.421,0.785 -0.119,0.284 -0.243,0.577 -0.372,0.88 -0.248,0.61 -0.552,1.248 -0.798,1.948 -0.223,0.708 -0.458,1.453 -0.705,2.23 -0.21,0.789 -0.372,1.625 -0.571,2.487 -0.194,0.864 -0.238,1.782 -0.368,2.716 -0.124,0.933 -0.075,1.939 -0.115,2.948 -0.012,1.007 0.147,1.953 0.218,2.959 0.217,1.135 0.443,2.204 0.905,3.207 0.396,1.046 0.887,1.855 1.302,2.852 l 0.324,0.72 c 0.079,0.154 0.117,0.417 0.181,0.619 l 0.178,0.651 0.073,0.72 c 0.068,0.459 0.076,1.005 0.093,1.537 l 0.07,1.598 c 0.176,2.273 0.814,4.593 2.076,6.516 1.23,1.931 2.901,3.377 4.432,4.679 1.554,1.269 3.054,2.495 4.478,3.657 1.453,1.138 2.871,2.161 4.163,3.118 l 0.841,0.656 c -2.442,5.844 -11.745,5.905 -17.02,4.396 -3.753,-0.905 -6.108,-2.663 -8.992,-4.867 -2.091,-1.537 -5.523,-4.428 -8.442,-4.179 0.106,-0.203 0.222,-0.407 0.342,-0.61 0.2,-0.111 0.424,-0.262 0.644,-0.468 0.802,-0.689 1.627,-1.97 2.296,-3.599 0.342,-0.815 0.652,-1.719 0.9,-2.697 0.236,-0.996 0.523,-1.976 0.533,-3.22 0.017,-1.064 0.067,-2.163 -0.028,-3.322 -0.052,-1.111 -0.102,-2.24 -0.155,-3.37 l 0.018,-1.617 0.012,-0.776 0.091,-0.838 c 0.112,-1.139 0.25,-2.141 0.423,-3.159 0.209,-1.008 0.396,-1.988 0.668,-2.893 0.107,-0.464 0.262,-0.894 0.414,-1.312 0.147,-0.417 0.267,-0.838 0.427,-1.218 0.17,-0.379 0.332,-0.741 0.486,-1.085 0.139,-0.358 0.297,-0.68 0.476,-0.968 0.352,-0.574 0.58,-1.15 0.889,-1.53 0.563,-0.809 0.881,-1.301 0.881,-1.301 0,0 -0.443,0.351 -1.219,1.017 -0.412,0.313 -0.777,0.809 -1.257,1.34 -0.505,0.519 -0.892,1.226 -1.396,1.957 -0.416,0.771 -0.921,1.605 -1.266,2.554 -0.179,0.472 -0.39,0.953 -0.557,1.457 -0.163,0.505 -0.3,1.03 -0.455,1.56 -0.245,1.072 -0.535,2.237 -0.642,3.326 l -0.108,0.836 c -0.029,0.353 -0.029,0.609 -0.044,0.919 -0.019,0.594 -0.055,1.197 -0.057,1.789 0.074,1.151 0.142,2.346 0.233,3.408 0.102,1.074 0.176,2.178 0.218,3.247 0.044,0.732 -0.042,1.575 -0.139,2.364 -0.901,0.647 -1.803,1.186 -2.947,1.621 -5.468,1.938 -15.706,2.569 -16.128,-5.236 -0.256,-5.858 0.746,-11.334 0.227,-17.415 -0.499,-5.837 -1.263,-11.897 -1.539,-17.998 -0.197,-4.346 0.516,-8.273 1.464,-12.342 0.372,-0.769 0.847,-1.793 1.367,-3.026 0.299,-0.679 0.677,-1.37 1.013,-2.13 0.34,-0.759 0.872,-1.443 1.285,-2.225 0.413,-0.731 1.077,-1.532 1.592,-2.334 0.29,-0.349 0.585,-0.702 0.878,-1.056 0.284,-0.361 0.583,-0.713 0.939,-1.024 l 0.984,-0.997 c 0.338,-0.318 0.724,-0.573 1.078,-0.862 0.688,-0.551 1.501,-1.15 2.259,-1.61 0.732,-0.438 1.495,-0.87 2.237,-1.267 0.756,-0.39 1.471,-0.759 2.129,-1.1 1.334,-0.681 2.421,-1.347 3.151,-1.846 0.718,-0.529 1.105,-0.843 1.105,-0.843 0,0 -0.488,0.155 -1.303,0.448 -0.413,0.132 -0.915,0.291 -1.492,0.474 -0.586,0.168 -1.231,0.365 -1.947,0.59 -0.715,0.214 -1.493,0.465 -2.309,0.761 -0.815,0.308 -1.683,0.637 -2.581,1.11 -0.858,0.458 -1.673,0.898 -2.521,1.561 -0.412,0.315 -0.859,0.602 -1.25,0.95 l -1.137,1.093 c -0.384,0.358 -0.719,0.77 -1.04,1.196 -0.323,0.417 -0.647,0.833 -0.97,1.246 -0.273,0.411 -0.517,0.827 -0.764,1.24 -0.234,0.401 -0.515,0.822 -0.715,1.278 -0.414,0.885 -0.868,1.726 -1.127,2.57 -0.051,0.159 -0.096,0.309 -0.145,0.465 -6.016,-3.873 -16.497,-21.338 -6.506,-24.337 4.05,-1.327 8.207,-1.437 11.973,-3.229 0.756,-0.424 1.542,-0.853 2.329,-1.28 0.387,-0.118 0.781,-0.24 1.183,-0.376 0.662,-0.207 1.442,-0.421 2.059,-0.561 0.785,-0.147 1.602,-0.275 2.422,-0.447 0.817,-0.14 1.66,-0.394 2.473,-0.48 0.815,-0.114 1.631,-0.226 2.429,-0.359 0.802,-0.116 1.576,-0.307 2.37,-0.367 0.783,-0.079 1.538,-0.196 2.259,-0.3 0.719,-0.086 1.396,-0.24 2.031,-0.306 2.531,-0.312 4.237,-0.719 4.237,-0.719 0,0 -1.703,-0.341 -4.289,-0.554 -0.645,-0.074 -1.349,-0.066 -2.092,-0.074 -0.744,-0.006 -1.53,-0.02 -2.342,0.008 -1.624,0.018 -3.391,0.292 -5.133,0.508 -0.879,0.115 -1.67,0.364 -2.492,0.555 -0.813,0.199 -1.601,0.435 -2.371,0.642 -0.917,0.275 -1.574,0.61 -2.261,0.94 -0.664,0.325 -1.265,0.657 -1.812,0.966 -0.051,0.029 -0.096,0.053 -0.146,0.081 -8.666,-3.754 -13.846,-16.322 -14.17,-24.67 4.308,4.532 10.352,6.466 16.739,6.655 5.901,0.23 13.225,2.789 17.754,7.057 -1.306,-3.808 -3.015,-6.602 -3.125,-10.758 1.299,1.796 6.07,7.75 9.715,8.659 -3.048,-10.514 -6.249,-20.984 -9.626,-31.397 -0.19,0.032 -0.386,0.066 -0.586,0.109 -1.761,0.568 -3.396,0.986 -5.192,1.139 1.343,-2.832 2.946,-5.602 3.321,-8.692 -3.472,-10.433 -7.093,-20.815 -10.909,-31.125 -5.198,-14.039 -11.141,-27.891 -20.487,-39.72 -1.996,-2.526 -4.189,-4.901 -6.48,-7.186 -0.854,2.336 -2.51,4.679 -3.633,6.34 -0.086,-2.638 -1.44,-5.445 -2.47,-7.723 -0.868,-2.015 -2.877,-4.348 -2.801,-6.72 0.288,0.114 0.299,0.252 0.462,0.517 l 0.155,-0.078 c -0.707,-0.62 -1.413,-1.237 -2.119,-1.852 -6.289,-5.477 -12.833,-10.656 -19.34,-15.872 -1.663,-1.334 -3.295,-2.701 -4.943,-4.051 0.107,1.488 0.428,2.882 0.665,4.277 0.675,3.003 0.947,6.182 1.621,9.186 0.86,3.545 1.996,7.066 2.867,10.75 0.009,0.035 0.018,0.071 0.027,0.106 0.499,0.168 1.007,0.305 1.414,0.466 4.311,1.58 7.63,2.967 10.472,6.901 2.23,3.288 4.128,7.58 5.426,11.366 2.283,7.181 1.958,16.395 0.926,23.86 -1.487,10.287 -7.035,17.025 -12.867,25.318 -2.847,4.14 -5.395,8.533 -8.093,12.8 -2.341,3.541 -4.083,7.587 -3.855,11.882 -0.347,-0.805 -0.682,-1.473 -1.029,-2.278 -2.325,-4.394 -5.305,-8.315 -8.284,-12.236 -2.68,-3.668 -6.188,-7.265 -7.937,-11.431 -1.747,-4.165 -0.799,-7.725 -0.589,-11.779 0.198,-4.193 -0.606,-8.717 -1.777,-12.653 -1.196,-4.213 -1.262,-8.244 -0.373,-12.495 1.221,-5.254 4.609,-9.58 7.433,-13.997 2.824,-4.416 5.106,-8.647 9.291,-11.79 1.828,-1.409 3.368,-2.932 5.347,-4.215 0.242,-0.175 0.501,-0.335 0.754,-0.502 -0.05,-0.174 -0.094,-0.349 -0.146,-0.524 -1.428,-5.306 -2.833,-10.335 -4.801,-15.456 -1.722,2.652 -4.067,4.523 -6.251,6.658 -0.975,0.966 -2.072,1.778 -3.139,2.628 -0.936,1.591 -1.58,3.73 -1.762,5.168 -0.727,4.516 -2.193,8.538 -3.923,12.723 -2.326,5.348 -5.888,9.271 -9.852,13.368 -3.574,3.785 -7.033,7.282 -11.865,9.365 -5.879,2.869 -11.888,4.219 -18.161,5.73 -4.937,1.197 -10.063,1.58 -15.028,2.659 3.859,-1.307 4.788,-7.254 4.876,-10.701 -0.027,-1.946 0.072,-4.041 0.183,-6 0.075,-2.373 0.775,-3.962 1.703,-6.13 1.604,-4.034 4.716,-8.337 7.807,-11.245 3.344,-3.209 6.654,-6.833 10.622,-9.259 5.278,-3.374 12.223,-3.551 18.223,-3.367 3.063,0.016 6.162,0.447 9.167,-0.228 1.548,-0.472 3.814,-1.012 5.234,-1.775 0.768,-0.916 1.529,-1.822 2.173,-2.755 2.263,-2.838 4.008,-5.214 5.094,-8.786 1.087,-3.573 1.356,-6.937 0.07,-10.584 -0.543,-1.258 -1.423,-2.571 -2.11,-3.787 -8.095,-6.95 -16.021,-14.09 -23.728,-21.481 -9.705,-9.306 -19.551,-18.554 -28.449,-28.649 -0.474,3.707 -2.104,7.392 -3.507,10.653 l -7.238,-23.878 c 0.005,0.004 0.025,0.009 0.032,0.013 -10.166,-13.584 -19.029,-28.288 -27.956,-42.616 -0.033,-0.055 -0.067,-0.11 -0.101,-0.164 -1.771,-2.847 -0.394,-5.777 1.809,-7.153 0.821,-2.696 6.776,-0.891 9.142,-0.024 4.379,1.296 9.374,3.28 10.535,8.191 6.148,24.157 20.734,44.993 38.185,62.431 l -1.094,-1.047 c 3.449,3.404 6.947,6.763 10.436,10.126 4.616,-1.076 15.174,0.604 16.494,2.26 -2.574,1.318 -6.042,3.43 -9.457,4.468 11.284,10.748 23.017,21.03 35.158,30.793 12.879,10.357 26.215,20.509 37.202,32.94 4.327,4.893 7.383,10.364 9.899,16.121 0.766,0.334 1.495,0.909 1.998,1.561 1.858,2.207 3.626,4.979 6.014,6.864 4.351,3.664 9.987,6.105 15.335,8.431 3.182,1.399 5.302,1.774 8.499,0.109 3.324,-1.816 6.2,-4.01 9.86,-5.158 3.809,-1.021 8.519,-1.285 12.435,-1.063 3.777,0.233 7.693,0.456 11.381,1.254 4.401,1.016 8.688,2.319 12.517,4.775 3.817,2.319 7.772,4.624 11.944,6.217 7.47,2.702 15.419,4.527 23.295,3.855 -4.2,1.333 -7.648,4.967 -11.525,6.83 -5.073,2.522 -9.673,5.698 -14.782,7.805 -8.469,3.508 -18.626,3.541 -27.702,3.203 -3.916,-0.221 -8.42,-0.811 -12.269,-1.873 -4.436,-1.43 -7.333,-4.384 -10.266,-7.752 -5.553,-6.345 -9.167,-16.057 -17.729,-18.527 -3.134,-0.845 -6.474,-0.838 -9.585,-1.407 -1.37,-0.303 -2.635,-0.497 -3.936,-0.573 1.078,3.091 2.169,6.195 3.371,9.28 1.722,4.424 3.372,8.873 4.971,13.339 1.324,0.577 2.628,2.197 3.859,2.996 1.326,0.861 3.17,1.26 4.37,2.271 -1.175,1 -3.496,2.15 -5.56,2.366 5.322,15.545 10.018,31.298 14.441,47.134 0.121,-1.976 0.395,-3.887 0.913,-5.814 1.224,-5.74 4.478,-10.673 5.682,-16.657 0.842,-4.481 1.698,-11.66 -0.136,-15.913 6.881,4.802 11.45,13.492 14.153,22.068 -0.498,0.364 -0.994,0.743 -1.476,1.156 -0.798,0.648 -1.58,1.43 -2.339,2.157 l -1.017,1.148 -0.253,0.286 -0.152,0.173 -0.12,0.169 -0.476,0.676 -0.466,0.672 c -0.132,0.233 -0.242,0.473 -0.361,0.706 -0.223,0.471 -0.492,0.926 -0.655,1.39 -0.393,0.919 -0.692,1.817 -0.955,2.661 -0.284,0.84 -0.505,1.632 -0.736,2.359 -0.26,0.698 -0.427,1.403 -0.67,1.94 -0.247,0.547 -0.371,1.081 -0.616,1.469 -0.421,0.801 -0.644,1.271 -0.644,1.271 0,0 0.374,-0.361 1,-1.013 0.331,-0.305 0.619,-0.795 1.001,-1.322 0.401,-0.535 0.71,-1.163 1.099,-1.855 0.364,-0.688 0.734,-1.452 1.102,-2.244 0.36,-0.801 0.776,-1.614 1.183,-2.441 0.19,-0.43 0.457,-0.796 0.685,-1.203 0.223,-0.414 0.493,-0.785 0.774,-1.146 l 0.409,-0.555 0.101,-0.141 0.105,-0.109 0.26,-0.28 1.044,-1.122 c 0.707,-0.697 1.353,-1.389 2.103,-2.03 0.743,-0.637 1.439,-1.309 2.187,-1.877 0.72,-0.6 1.447,-1.147 2.134,-1.674 0.68,-0.537 1.369,-0.981 1.976,-1.443 0.613,-0.451 1.206,-0.821 1.712,-1.187 0.356,-0.251 0.674,-0.464 0.969,-0.659 2.289,-0.797 4.59,-1.311 6.776,-1.44 0.492,2.897 0.783,6.302 0.525,9.02 0.869,-1.3 1.982,-2.619 2.608,-3.898 0.403,-1.015 0.46,-3.225 0.884,-3.996 1.557,-1.848 5.448,-2.181 7.394,-2.347 1.914,-0.241 3.745,-0.248 5.508,-0.048 0.08,0.028 0.154,0.056 0.236,0.084 0.747,0.218 1.531,0.635 2.393,1.042 0.435,0.188 0.869,0.433 1.303,0.715 0.442,0.262 0.899,0.531 1.368,0.809 0.888,0.649 1.855,1.263 2.787,2.025 0.966,0.708 1.864,1.558 2.834,2.348 0.963,0.867 1.93,1.727 2.803,2.63 0.945,0.849 1.768,1.831 2.624,2.751 0.793,0.981 1.646,1.889 2.371,2.858 0.736,0.957 1.477,1.867 2.131,2.77 0.666,0.898 1.297,1.747 1.877,2.531 1.17,1.578 2.145,2.893 2.828,3.814 0.696,0.916 1.111,1.43 1.111,1.43 0,0 -0.256,-0.609 -0.734,-1.656 -0.483,-1.043 -1.187,-2.532 -2.131,-4.266 -0.469,-0.869 -0.978,-1.813 -1.581,-2.775 -0.575,-0.979 -1.221,-1.991 -1.937,-3.009 -0.697,-1.029 -1.484,-2.056 -2.304,-3.082 -0.876,-0.983 -1.717,-2.024 -2.702,-2.949 -0.964,-0.961 -1.972,-1.815 -2.938,-2.652 -1.024,-0.838 -2.06,-1.628 -3.106,-2.324 -0.336,-0.251 -0.684,-0.474 -1.036,-0.689 2.323,-1.335 4.858,-2.29 7.58,-2.706 4.602,-0.638 9.75,-0.589 14.275,0.74 2.779,0.987 11.227,8.105 14.099,4.43 1.027,6.282 5.619,11.28 4.499,18.236 -0.483,2.991 -1.724,5.591 -3.425,7.878 7.812,0.055 13.539,2.189 16.826,11.311 3.813,10.21 0.106,21.306 4.648,31.453 0.612,1.418 3.029,3.907 2.689,5.651"
             style="fill:#ffc9c9;fill-opacity:1;fill-rule:nonzero;stroke:none"
             id="path26" />
        </g>
      </g>
    </g>
  </g>
</svg>
