<?xml version="1.0" encoding="UTF-8" standalone="no"?>
<!-- Created with Inkscape (http://www.inkscape.org/) -->

<svg
   version="1.1"
   id="svg2"
   width="2666.6667"
   height="2666.6667"
   viewBox="0 0 2666.6667 2666.6667"
   sodipodi:docname="9024081.ai"
   xmlns:inkscape="http://www.inkscape.org/namespaces/inkscape"
   xmlns:sodipodi="http://sodipodi.sourceforge.net/DTD/sodipodi-0.dtd"
   xmlns="http://www.w3.org/2000/svg"
   xmlns:svg="http://www.w3.org/2000/svg">
  <defs
     id="defs6">
    <clipPath
       clipPathUnits="userSpaceOnUse"
       id="clipPath18">
      <path
         d="M 0,2000 H 2000 V 0 H 0 Z"
         id="path16" />
    </clipPath>
  </defs>
  <sodipodi:namedview
     id="namedview4"
     pagecolor="#ffffff"
     bordercolor="#000000"
     borderopacity="0.25"
     inkscape:showpageshadow="2"
     inkscape:pageopacity="0.0"
     inkscape:pagecheckerboard="0"
     inkscape:deskcolor="#d1d1d1" />
  <g
     id="g8"
     inkscape:groupmode="layer"
     inkscape:label="9024081"
     transform="matrix(1.3333333,0,0,-1.3333333,0,2666.6667)">
    <path
       d="M 0,0 H 2000 V 2000 H 0 Z"
       style="fill:#ffffff;fill-opacity:1;fill-rule:nonzero;stroke:none"
       id="path10" />
    <g
       id="g12">
      <g
         id="g14"
         clip-path="url(#clipPath18)">
        <g
           id="g20"
           transform="translate(915.3166,1840.2461)">
          <path
             d="m 0,0 c 28.888,7.232 59.385,7.693 88.496,1.43 7.204,-1.55 14.32,-3.507 21.3,-5.867 7.04,-2.381 13.894,-5.25 20.773,-8.052 13.314,-5.422 27.257,-10.818 41.866,-10.552 8.068,0.147 15.763,2.364 23.372,4.861 7.652,2.511 15.352,5.217 23.452,5.732 0.73,0.046 1.109,0.623 1.002,1.314 -2.321,14.902 -12.568,28.129 -26.066,34.699 -7.408,3.606 -15.439,4.807 -23.627,4.567 -9.2,-0.271 -18.272,-2.044 -27.452,-2.58 -8.962,-0.524 -17.791,0.426 -25.764,4.814 -7.422,4.086 -13.646,9.959 -20.838,14.4 C 89.256,49.248 81.113,51.562 72.57,51.431 64.068,51.301 55.684,48.991 48.049,45.317 31.71,37.455 19.548,23.244 8.54,9.26 7.158,7.504 5.786,5.74 4.414,3.976 4.2,3.7 4.147,3.393 4.197,3.111 2.611,2.755 1.025,2.397 -0.552,2.003 -1.848,1.678 -1.299,-0.325 0,0"
             style="fill:#06193f;fill-opacity:1;fill-rule:nonzero;stroke:none"
             id="path22" />
        </g>
        <g
           id="g24"
           transform="translate(1007.2594,1617.3033)">
          <path
             d="M 0,0 C 8.785,8.367 14.71,14.009 20.634,19.651 19.9,21.471 19.165,23.29 18.43,25.109 11.737,21.63 4.559,18.781 -1.335,14.259 -2.961,13.012 -0.763,6.779 0,0"
             style="fill:#06193f;fill-opacity:1;fill-rule:nonzero;stroke:none"
             id="path26" />
        </g>
        <g
           id="g28"
           transform="translate(996.0986,1565.1958)">
          <path
             d="M 0,0 C 0.008,0.025 0.016,0.05 0.024,0.075 28.516,12.223 50.41,28.557 67.768,50.921 77.26,63.149 76.815,83.452 66.961,98.037 64.393,93.715 62.252,88.81 59.971,84.121 51.423,76.187 40.147,71.132 31.437,63.401 19.978,53.229 12.442,39.547 6.731,25.515 4.315,19.579 2.209,13.526 0.214,7.437 -1.171,4.501 -2.531,1.513 -3.859,-1.557 c 0.789,0.319 1.553,0.655 2.332,0.98 C -0.999,-0.85 -0.234,-0.738 0,0"
             style="fill:#06193f;fill-opacity:1;fill-rule:nonzero;stroke:none"
             id="path30" />
        </g>
        <g
           id="g32"
           transform="translate(1044.045,1656.9196)">
          <path
             d="m 0,0 c 2.651,4.093 4.437,7.791 5.401,11.09 1.631,2.316 2.987,4.804 3.778,7.532 1.462,5.045 0.398,10.282 -2.798,14.427 -3.282,4.258 -8.158,6.848 -13.446,7.602 -5.965,0.851 -11.892,-0.499 -17.377,-2.815 -2.899,-1.224 -5.72,-2.642 -8.684,-3.707 -3.051,-1.096 -6.133,-1.609 -9.372,-1.664 -3.354,-0.057 -6.716,0.206 -10.066,-0.073 -3.026,-0.252 -5.97,-0.981 -8.795,-2.09 -5.224,-2.051 -10.184,-5.009 -14.639,-8.412 -4.079,-3.118 -7.818,-6.782 -10.531,-11.17 -3.045,-4.927 -4.552,-10.704 -3.744,-16.48 0.816,-5.841 3.842,-11.306 8.411,-15.043 1.026,-0.839 2.504,0.622 1.468,1.469 -1.531,1.252 -2.844,2.68 -3.943,4.23 1.24,-1.62 2.894,-3.253 5.057,-4.91 5.07,19.214 16.835,29.299 34.299,34.576 C -26.259,20.218 -11.771,14.904 0,0"
             style="fill:#06193f;fill-opacity:1;fill-rule:nonzero;stroke:none"
             id="path34" />
        </g>
        <g
           id="g36"
           transform="translate(1091.978,1588.1366)">
          <path
             d="m 0,0 c 7.096,-22.516 23.55,-37.397 38.953,-53.301 8.148,-8.413 18.571,-5.997 23.333,4.535 13.652,30.191 8.844,60.339 -4.433,88.343 -7.696,16.231 -19.37,33.615 -34.061,42.76 -20.75,12.917 -34.631,25.68 -37.842,51.454 -4.062,32.609 -18.297,37.841 -44.596,18.757 -19.5,-14.15 -40.454,-24.025 -64.097,-28.597 -8.175,-1.582 -16.223,-4.106 -24.116,-6.819 -51.849,-17.825 -61.63,-85.609 -30.477,-116.452 7.533,-7.458 12.974,-17.029 19.378,-25.629 1.202,-0.173 2.403,-0.347 3.605,-0.52 -1.796,12.126 -2.719,24.461 -5.55,36.341 -8.574,35.971 13.443,83.895 45.278,98.576 19.917,9.186 40.377,8.408 60.595,3.627 10.314,-2.439 22.632,-6.638 28.792,-14.277 C -12.486,82.984 -4.691,63.43 -7.886,42.417 -10.26,26.8 -4.414,14.004 0,0"
             style="fill:#06193f;fill-opacity:1;fill-rule:nonzero;stroke:none"
             id="path38" />
        </g>
        <g
           id="g40"
           transform="translate(1165.7675,1461.0135)">
          <path
             d="M 0,0 C 4.618,3.224 10.453,10.622 9.562,14.758 6.312,29.854 0.451,44.386 -4.427,59.131 -6.104,58.825 -7.782,58.519 -9.459,58.213 -14.904,47.293 -20.025,36.194 -25.902,25.511 -30.131,17.823 -34.125,9.36 -40.365,3.535 c -29.828,-27.848 -63.32,-47.017 -106.087,-48.342 -24.265,-0.752 -49.249,-4.342 -72.281,-11.729 -24.095,-7.729 -46.425,-9.902 -70.496,-2.187 -10.253,3.287 -21.665,2.959 -32.836,4.308 0,-3.565 -0.364,-4.72 0.052,-5.391 26.185,-42.184 64.503,-69.56 109.638,-87.845 4.723,-1.914 13.677,2.292 18.705,6.191 23.984,18.602 46.432,39.272 71.032,56.974 C -82.355,-55.497 -40.704,-28.415 0,0"
             style="fill:#06193f;fill-opacity:1;fill-rule:nonzero;stroke:none"
             id="path42" />
        </g>
        <g
           id="g44"
           transform="translate(1105.1204,1806.6281)">
          <path
             d="m 0,0 c -24.908,-2.577 -46.181,5.239 -67.757,15.735 -12.623,6.141 -26.579,12.685 -40.141,13.159 -39.802,1.391 -76.113,-11.33 -104.771,-39.291 -12.135,-11.839 -20.135,-28.335 -28.416,-43.582 -7.412,-13.644 -11.082,-29.424 -19.121,-42.603 -19.171,-31.431 -4.893,-79.023 33.718,-96.932 -1.356,15.088 0.647,29.53 -4.335,40.915 -11.871,27.125 -9.972,48.499 10.431,70.218 4.307,4.585 8.085,9.909 11.076,15.449 14.519,26.898 41.637,37.651 70.846,27.879 4.1,-1.372 9.372,-3.878 12.598,-2.454 17.815,7.863 31.481,1.573 43.522,-11.562 2.682,1.454 4.823,2.589 6.941,3.766 32.396,18.005 51.738,9.539 60.827,-26.69 0.956,-3.812 2.31,-7.749 2.157,-11.575 -0.68,-17.024 9.506,-24.889 23.203,-32.223 10.842,-5.805 20.968,-14.3 29.045,-23.645 17.707,-20.489 27.948,-44.562 31.842,-71.56 0.073,-3.224 0.022,-6.454 -0.171,-9.682 -1.015,-16.932 -8.849,-33.009 -8.593,-49.979 0.12,-7.98 2.583,-15.221 6.806,-21.927 3.343,-5.306 9.947,-12.177 8.891,-18.973 -0.672,-4.321 2.701,-9.318 7.663,-7.663 23.113,7.707 43.104,23.682 55.177,44.936 13.116,23.09 16.063,51.661 8.208,77.01 -7.638,24.654 -26.924,43.168 -35.636,67.195 -9.217,25.419 1.774,54.537 -13.155,78.475 -7.024,11.262 -17.556,16.799 -30.553,18.043 -4.78,0.458 -10.396,0.076 -15.789,0.424 -5.406,4.074 -10.195,9.726 -13.087,15.19 C 32.102,-4.324 17.267,1.786 0,0"
             style="fill:#06193f;fill-opacity:1;fill-rule:nonzero;stroke:none"
             id="path46" />
        </g>
        <g
           id="g48"
           transform="translate(885.2654,1516.752)">
          <path
             d="M 0,0 C 16.428,8.74 31.725,16.877 49.006,26.071 35.042,46.732 21.965,66.081 7.384,87.656 -1.08,58.204 -9.003,30.605 0,0"
             style="fill:#06193f;fill-opacity:1;fill-rule:nonzero;stroke:none"
             id="path50" />
        </g>
        <g
           id="g52"
           transform="translate(971.8383,1552.0077)">
          <path
             d="m 0,0 c 5.01,6.459 9.967,11.101 12.73,16.805 4.675,9.649 6.714,20.713 12.142,29.824 C 31.958,58.521 25.7,62.142 16.33,65.683 3.399,70.57 -9.43,75.724 -23.469,81.22 -33.535,52.661 -21.689,27.641 0,0"
             style="fill:#06193f;fill-opacity:1;fill-rule:nonzero;stroke:none"
             id="path54" />
        </g>
        <g
           id="g56"
           transform="translate(1034.9835,1650.0909)">
          <path
             d="m 0,0 c -8.672,13.007 -19.26,14.417 -31.82,10.768 -13.693,-3.978 -25.426,-9.614 -28.421,-27.15 6.706,-1.435 12.738,-2.725 20.565,-4.399 C -33.448,-0.405 -17.365,0.541 0,0"
             style="fill:#06193f;fill-opacity:1;fill-rule:nonzero;stroke:none"
             id="path58" />
        </g>
        <g
           id="g60"
           transform="translate(991.3975,1754.1696)">
          <path
             d="m 0,0 c -9.855,1.126 -20.225,-0.07 -29.613,2.506 -20.616,5.657 -39.771,-1.085 -51.937,-19.439 -6.433,-9.705 -13.626,-18.972 -21.125,-27.89 -11.062,-13.155 -12.445,-27.558 -8.161,-44.604 34.281,49.629 34.782,49.72 96.051,65.813 12.028,3.16 23.447,8.635 35.147,13.042 -0.022,2.203 -0.045,4.406 -0.067,6.609 C 13.534,-2.605 6.827,-0.78 0,0"
             style="fill:#06193f;fill-opacity:1;fill-rule:nonzero;stroke:none"
             id="path62" />
        </g>
        <g
           id="g64"
           transform="translate(842.2301,1309.9558)">
          <path
             d="m 0,0 c 6.156,-21.119 30.24,-29.638 48.776,-17.891 9.884,6.264 18.915,13.873 29.194,21.517 -3.826,2.807 -6.864,5.129 -9.995,7.319 -29.212,20.431 -56.423,43.05 -75.272,73.851 -4.578,7.481 -9.479,11.06 -18.041,12.354 -29.873,4.513 -52.725,18.491 -67.121,46.748 -14.147,27.767 -31.597,53.833 -46.663,81.16 -6.184,11.218 -14.664,15.693 -26.402,13.668 -14.952,-2.579 -29.708,-6.294 -46.556,-9.955 58.568,-57.351 -1.926,-120.278 11.283,-168.565 2.81,-10.274 7.048,-20.622 12.784,-29.551 C -161.841,-10.088 -72.867,5.247 -25.055,14.814 -11.431,17.54 -4.074,13.976 0,0"
             style="fill:#06193f;fill-opacity:1;fill-rule:nonzero;stroke:none"
             id="path66" />
        </g>
        <g
           id="g68"
           transform="translate(852.0479,1471.7212)">
          <path
             d="m 0,0 c 20.73,-6.953 39.074,-12.257 56.743,-19.261 19.442,-7.708 38.705,-8.412 57.218,0.494 49.803,23.957 99.176,48.807 145.452,71.688 -13.611,27.722 -26.016,52.989 -38.59,78.6 -0.513,-0.423 -2.128,-1.403 -3.292,-2.767 C 190.699,97.275 155.821,78.843 116.813,67.717 82.197,57.844 51.809,40.038 22.691,19.697 15.239,14.492 8.852,7.762 0,0"
             style="fill:#06193f;fill-opacity:1;fill-rule:nonzero;stroke:none"
             id="path70" />
        </g>
        <g
           id="g72"
           transform="translate(674.0431,1576.1874)">
          <path
             d="m 0,0 c 14.766,-8.932 25.698,-22.636 35.495,-36.573 4.701,-6.689 9.222,-13.504 13.931,-20.188 0.364,-0.713 0.729,-1.426 1.094,-2.14 0.103,0.054 0.207,0.108 0.311,0.161 0.078,-0.108 0.154,-0.217 0.232,-0.325 0.05,-0.184 0.163,-0.352 0.348,-0.49 0.317,-0.441 0.624,-0.889 0.943,-1.328 0.449,-0.617 1.237,-0.533 1.673,-0.144 15.329,-8.523 31.574,-15.35 48.389,-20.333 1.272,-0.733 2.566,-1.489 3.891,-2.28 -0.213,0.448 -0.427,0.886 -0.64,1.332 0.462,-0.129 0.919,-0.275 1.382,-0.402 1.291,-0.355 1.841,1.648 0.552,2.002 -1.052,0.289 -2.094,0.613 -3.142,0.916 -15.827,32.878 -31.721,61.09 -42.524,91.119 -10.863,30.195 -15.434,62.31 -9.397,97.679 0.37,0.272 0.398,0.777 0.201,1.193 0.216,1.218 0.442,2.439 0.683,3.664 -1.25,-1.141 -2.489,-2.272 -3.723,-3.399 C 40.642,108.45 32.609,103.466 25.313,97.853 17.662,91.966 10.347,85.575 3.106,79.195 -11.04,66.732 -24.75,53.294 -34.856,37.255 -40.432,28.406 -44.773,18.783 -47.28,8.613 -47.459,7.885 -46.781,7.073 -46.002,7.336 -30.445,12.578 -13.67,8.27 0,0"
             style="fill:#06193f;fill-opacity:1;fill-rule:nonzero;stroke:none"
             id="path74" />
        </g>
        <g
           id="g76"
           transform="translate(733.3932,1505.4065)">
          <path
             d="m 0,0 c 3.418,-2.677 6.53,-8.438 10.191,-13.825 6.358,-9.353 14.463,-17.789 19.351,-27.821 15.916,-32.666 42.82,-43.528 77.257,-43.485 16.474,0.02 32.907,-4.433 49.443,-5.383 13.922,-0.799 29.358,-3.079 41.677,1.659 28.677,11.028 58.224,14.339 88.134,16.259 57.307,3.677 97.776,31.203 122.127,82.661 -0.895,1.584 -1.79,3.168 -2.685,4.752 C 388.075,7.475 370.202,1.039 353.336,-7.408 323.44,-22.38 294.735,-39.822 264.45,-53.902 234.381,-67.882 203.583,-77.901 169.197,-64.444 133.664,-50.536 96.596,-40.6 60.744,-27.44 39.942,-19.805 20.212,-9.244 0,0"
             style="fill:#06193f;fill-opacity:1;fill-rule:nonzero;stroke:none"
             id="path78" />
        </g>
        <g
           id="g80"
           transform="translate(791.0629,1498.9415)">
          <path
             d="m 0,0 c 3.132,-5.611 10.428,-9.486 16.555,-12.727 19.315,-10.217 35.876,-6.721 50.029,10.485 4.872,5.922 12.039,9.956 18.84,15.397 -10.993,26.942 -10.002,54.552 -4.723,82.533 0.66,3.499 -2.239,8.458 -4.833,11.647 -12.55,15.431 -27.046,29.493 -38.04,45.922 -14.668,21.92 -11.913,44.457 3.187,66.17 6.084,8.75 12.199,18.686 14.123,28.871 0.621,3.286 1.358,6.497 2.192,9.648 10.218,17.8 21.352,35.135 34.186,51.175 7.384,9.228 15.322,18.011 23.866,26.18 0.397,0.38 0.402,1.089 0,1.468 -11.977,11.325 -27.965,17.971 -44.384,18.968 -16.144,0.98 -32.137,-3.881 -45.045,-13.614 -12.484,-9.411 -21.924,-22.835 -25.937,-37.997 -2.433,-9.191 -3.047,-18.735 -5.18,-27.988 -1.063,-4.609 -2.52,-9.122 -4.711,-13.326 -2.099,-4.026 -4.727,-7.751 -7.501,-11.336 -5.599,-7.235 -11.638,-14.08 -16.038,-22.158 -4.133,-7.586 -7.05,-15.838 -8.61,-24.336 -6.698,-18.919 -10.661,-37.65 -9.918,-57.612 C -49.914,92.883 -25.725,46.081 0,0"
             style="fill:#06193f;fill-opacity:1;fill-rule:nonzero;stroke:none"
             id="path82" />
        </g>
        <g
           id="g84"
           transform="translate(926.0876,1241.2471)">
          <path
             d="M 0,0 C 40.021,26.221 29.156,55.552 29.156,55.552 13.798,67.321 1.938,66.495 -9.022,54.028 c -2.566,-2.919 -6.001,-5.054 -8.886,-7.714 -8.657,-7.981 -17.033,-12.987 -25.637,-14.988 -1.671,-0.342 -3.309,-0.613 -4.915,-0.812 -9.992,-0.984 -20.411,2.005 -32.028,9.06 -1.865,1.133 -3.559,1.918 -5.15,2.382 -6.957,5.345 -10.966,10.486 -10.966,10.486 0,0 -37.261,-15.181 -45.541,-60.722 -8.281,-45.542 19.32,-77.283 19.32,-77.283 0,0 2.76,17.94 28.981,49.682 C -67.623,-4.14 -40.022,-26.221 0,0"
             style="fill:#06193f;fill-opacity:1;fill-rule:nonzero;stroke:none"
             id="path86" />
        </g>
        <g
           id="g88"
           transform="translate(1360.1396,1577.7935)">
          <path
             d="m 0,0 c -8.656,26.682 -32.37,44.623 -42.422,70.478 -6.109,15.715 -1.377,31.355 0.04,47.438 1.393,15.805 -2.485,31.042 -15.513,41.018 -12.486,9.56 -29.6,11.599 -44.051,5.627 -14.3,-5.909 -25.103,-18.999 -29.674,-33.643 -5.325,-31.159 21.799,-54.028 36.087,-76.718 14.536,-23.082 17.388,-52.357 9.29,-78.241 -4.575,-14.627 -12.447,-28.059 -23.522,-38.707 -3.091,-2.972 -2.755,-7.137 0.416,-9.857 23.28,-19.974 59.475,-21.619 84.409,-3.749 C -1.602,-59.627 8.825,-27.202 0,0"
             style="fill:#06193f;fill-opacity:1;fill-rule:nonzero;stroke:none"
             id="path90" />
        </g>
        <g
           id="g92"
           transform="translate(1160.8248,958.8639)">
          <path
             d="m 0,0 c -12.447,-11.064 -28.838,-32.609 -29.724,-51.217 -2.026,9.114 1.369,18.759 5.356,26.702 3.94,7.848 9.098,15.008 15.009,21.503 19.687,21.634 37.18,48.329 54.562,73.269 20.482,29.387 56.312,85.122 57.288,84.19 C 76.7,86.663 21.388,19.012 0,0 m -240.258,-189.595 c -19.536,17.366 -91.8,145.127 -90.75,145.892 1.08,0.786 30.04,-46.425 49.349,-74.129 4.041,-5.798 8.559,-11.752 13.354,-17.728 1.81,-3.14 3.67,-6.248 5.576,-9.317 14.326,-23.061 31.184,-44.387 46.614,-66.694 -7.528,7.459 -15.978,14.719 -24.143,21.976 m 121.456,431.693 c 1.95,-7.261 3.573,-14.553 4.658,-21.896 0.643,-4.354 1.095,-8.728 1.429,-13.122 -1.26,11.787 -3.293,23.489 -6.087,35.018 m -16.82,48.549 c 0.44,-0.16 0.88,-0.322 1.323,-0.476 1.321,-4.038 2.687,-8.072 4.059,-12.103 -1.684,4.235 -3.479,8.428 -5.382,12.579 M 116.036,186.696 c 0,0 -142.84,-80.007 -168.174,-118.009 -27.54,-41.31 14.439,-134.081 14.439,-134.081 l -23.924,-25.697 c 0,0 -18.025,89.188 -21.843,125.077 -3.558,33.446 -7.117,66.891 -10.675,100.337 -0.873,8.207 -1.747,16.415 -2.62,24.623 0.3,3.529 0.634,7.061 1.042,10.6 2.372,20.558 0.393,41.438 -1.269,62.29 -3.572,7.953 -6.461,16.297 -8.258,24.631 -1.446,6.707 -2.394,14.882 0.474,21.14 2.666,1.008 5.793,1.207 8.392,0.915 7.804,-0.876 14.532,-6.5 20.841,-10.736 7.499,-5.034 15.438,-9.104 24.405,-10.713 7.474,-1.341 18.4,-2.985 23.132,4.597 4.598,7.367 7.15,17.209 9.763,25.416 2.917,9.157 5.314,18.48 7.182,27.908 1.688,8.526 2.934,17.128 3.781,25.768 4.518,20.928 12.992,40.14 31.57,52.618 20.354,13.672 45.952,15.996 66.654,28.938 20.765,12.984 32.862,42.804 28.518,66.687 -1.856,10.201 -6.743,20.169 -12.36,28.79 -1.416,2.173 -3.175,4.788 -5.225,7.257 -11.862,4.004 -24.479,5.167 -37.419,2.155 -8.52,-1.984 -16.508,-5.343 -24.011,-9.629 -4.534,-5.175 -9.362,-9.96 -14.751,-13.981 -7.084,-5.285 -14.201,-10.527 -21.338,-15.743 -0.031,-0.033 -0.063,-0.066 -0.094,-0.099 -0.468,-0.496 -0.97,-0.836 -1.483,-1.046 -44.73,-32.648 -90.386,-64.062 -135.992,-95.497 -15.066,-10.384 -28.203,-22.455 -40.332,-35.707 -1.431,-0.636 -2.602,-1.899 -3.093,-3.912 -5.795,-13.638 -0.497,-27.046 9.265,-38.493 1.362,-1.781 2.83,-3.497 4.397,-5.134 7.052,-7.361 15.453,-12.588 24.581,-16.264 23.221,-49.515 30.635,-105.769 21.112,-159.588 -1.889,1.009 -3.639,1.945 -5.282,2.823 -7.816,7.985 -19.426,11.882 -30.703,9.746 -0.948,-0.179 -0.922,-1.438 -0.248,-1.897 11.938,-8.147 21.153,-18.568 28.444,-30.334 3.766,-10.863 6.672,-22.025 9.09,-33.262 3.508,-16.302 6.121,-32.789 8.922,-49.222 l 8.829,-51.801 c 3.199,-18.768 6.399,-37.537 9.598,-56.305 0.271,-2.091 0.543,-4.18 0.815,-6.272 0.525,-6.307 0.797,-12.632 0.689,-18.98 -0.21,-12.38 -2.024,-24.691 -6.105,-36.386 -4.347,9.958 -13.412,17.609 -24.082,19.981 -0.933,0.207 -1.552,-0.705 -1.172,-1.526 11.572,-25.042 13.815,-54.109 6.71,-80.727 -0.01,-0.028 -0.021,-0.056 -0.031,-0.084 -8.511,-17.282 -17.596,-34.431 -25.319,-51.882 -0.611,-1.38 -1.252,-2.753 -1.905,-4.122 -0.794,-1.25 -1.587,-2.5 -2.369,-3.757 -4.995,-8.038 -9.495,-16.305 -13.509,-24.824 -3.492,-0.856 -7.114,0.023 -10.542,3.952 -3.167,3.63 -5.033,8.271 -7.053,12.582 -1.623,3.463 -3.342,6.88 -5.143,10.253 4.205,33.554 8.613,68.287 4.199,101.784 -1.93,14.64 -6.423,29.27 -16.337,40.545 -5.672,6.45 -12.951,11.346 -19.792,16.45 -3.534,2.637 -7.069,5.275 -10.604,7.912 -36.169,32.417 -107.096,65.394 -116.072,69.502 -0.835,0.439 -1.661,0.895 -2.504,1.319 -0.299,0.151 -0.626,0.146 -0.901,0.032 -0.009,0.045 -0.02,0.09 -0.029,0.135 0,0 -0.019,-0.064 -0.049,-0.166 -0.302,-0.157 -0.521,-0.459 -0.526,-0.864 -0.004,-0.355 -0.008,-0.711 -0.012,-1.066 -3.451,-12.822 -20.152,-82.46 4.789,-147.307 27.601,-71.763 122.858,-72.052 143.542,-89.848 0.004,0.023 0.005,0.046 0.008,0.069 3.207,-5.125 6.07,-10.465 8.559,-15.975 7.366,-16.31 11.474,-34.119 12.044,-52.002 -0.001,-0.012 -0.003,-0.022 -0.005,-0.034 -6.457,-19.45 -12.139,-39.206 -18.26,-58.693 -4.979,-15.854 -10.333,-31.683 -15.353,-47.598 -1.395,-6.825 -2.718,-13.664 -3.938,-20.523 -6.431,-36.158 -20.011,-72.312 -19.285,-109.01 0.244,-12.361 0.643,-24.728 0.926,-37.095 1.766,-12.772 2.892,-25.637 3.546,-38.509 2.157,-42.411 10.717,-84.853 7.244,-127.132 -2.516,-30.643 -5.967,-63.316 -18.511,-91.904 11.84,-1.937 23.214,-5.917 33.642,-11.843 3.005,5.607 5.292,11.612 7.052,17.818 4.139,27.785 6.209,55.801 6.892,83.874 -0.455,24.195 -2.224,48.434 -4.035,72.393 -1.176,15.557 -7.026,81.968 -5.178,97.902 2.456,21.18 9.399,42.449 23.12,58.5 0.699,1.092 1.424,2.172 2.197,3.228 7.318,9.996 16.984,17.986 26.456,25.844 0.979,0.813 -0.271,2.071 -1.258,1.63 -9.672,-4.311 -19.344,-8.623 -29.015,-12.936 -3.535,-1.575 -11.196,-6.591 -14.761,-2.884 -1.486,1.546 -1.68,4.064 -1.94,6.073 -0.337,2.603 -0.633,5.212 -0.897,7.825 -0.346,3.426 -0.609,6.86 -0.835,10.296 0.098,6.116 0.539,12.191 1.653,18.187 7.232,38.89 16.157,77.685 27.338,115.971 9.11,31.196 21.057,62 34.337,92.255 21.523,49.037 50.782,96.049 61.295,147.902 2.024,5.527 3.817,11.135 5.392,16.803 11.187,16.075 23.858,31.098 40.39,41.97 0.555,0.365 1.122,0.709 1.682,1.066 41.992,12.349 106.682,28.42 129.769,88.444 26.503,68.909 7.704,166.286 7.704,166.286"
             style="fill:#06193f;fill-opacity:1;fill-rule:nonzero;stroke:none"
             id="path94" />
        </g>
      </g>
    </g>
  </g>
</svg>
