<svg xmlns="http://www.w3.org/2000/svg" id="canvas" viewBox="269.662 390.251 1160.289 133.735"><path d="M 274.83,446.48 C 275.67 446.29, 276.00 445.71, 277.10 444.62 C 278.20 443.53, 278.88 442.93, 280.33 441.03 C 281.77 439.14, 282.51 437.69, 284.32 435.13 C 286.13 432.57, 287.17 430.99, 289.39 428.23 C 291.60 425.47, 292.94 423.96, 295.38 421.33 C 297.81 418.69, 299.19 417.27, 301.54 415.04 C 303.89 412.82, 305.22 411.90, 307.12 410.18 C 309.01 408.46, 310.00 407.55, 311.01 406.45 C 312.03 405.35, 312.24 404.76, 312.20 404.67 C 312.17 404.57, 311.62 404.64, 310.83 405.98 C 310.04 407.31, 309.51 408.42, 308.25 411.34 C 306.99 414.26, 306.37 416.48, 304.53 420.58 C 302.68 424.67, 301.33 427.19, 299.01 431.83 C 296.70 436.48, 295.27 439.15, 292.94 443.81 C 290.61 448.47, 289.36 451.02, 287.38 455.15 C 285.40 459.28, 284.31 461.22, 283.04 464.44 C 281.77 467.67, 281.22 469.09, 281.03 471.29 C 280.85 473.50, 281.18 474.42, 282.12 475.47 C 283.07 476.52, 284.01 476.80, 285.77 476.53 C 287.52 476.26, 288.82 475.81, 290.90 474.13 C 292.97 472.44, 293.87 470.82, 296.13 468.10 C 298.38 465.37, 299.64 463.56, 302.17 460.51 C 304.70 457.46, 306.19 455.70, 308.77 452.83 C 311.34 449.97, 312.87 448.49, 315.05 446.19 C 317.22 443.88, 318.41 442.78, 319.66 441.31 C 320.91 439.84, 321.14 439.16, 321.31 438.83 C 321.48 438.49, 321.06 438.65, 320.51 439.62 C 319.96 440.59, 319.29 441.51, 318.58 443.68 C 317.86 445.85, 317.53 447.58, 316.92 450.48 C 316.32 453.37, 315.96 455.19, 315.56 458.16 C 315.17 461.13, 314.84 462.74, 314.94 465.33 C 315.04 467.91, 315.20 469.21, 316.06 471.09 C 316.93 472.96, 317.62 473.84, 319.27 474.70 C 320.91 475.55, 322.08 475.77, 324.27 475.36 C 326.46 474.96, 327.86 474.50, 330.21 472.67 C 332.56 470.84, 333.57 469.26, 336.02 466.21 C 338.47 463.15, 339.80 461.25, 342.46 457.41 C 345.13 453.57, 346.62 451.30, 349.35 447.00 C 352.07 442.69, 353.55 440.25, 356.10 435.89 C 358.65 431.54, 359.96 429.24, 362.10 425.21 C 364.23 421.18, 365.24 419.14, 366.79 415.75 C 368.34 412.35, 369.09 410.80, 369.85 408.23 C 370.60 405.66, 370.58 404.49, 370.57 402.89 C 370.55 401.30, 370.18 400.93, 369.76 400.25 C 369.35 399.58, 368.90 399.60, 368.48 399.51 C 368.07 399.42, 367.71 399.59, 367.68 399.80 C 367.66 400.01, 368.26 400.45, 368.36 400.55 C 368.45 400.65, 368.33 400.28, 368.16 400.29 C 367.98 400.30, 367.74 400.18, 367.49 400.60 C 367.24 401.02, 367.31 401.13, 366.90 402.39 C 366.50 403.65, 366.19 404.53, 365.45 406.90 C 364.71 409.27, 364.48 410.90, 363.21 414.25 C 361.94 417.60, 361.07 419.67, 359.10 423.67 C 357.12 427.68, 355.84 429.97, 353.33 434.28 C 350.82 438.58, 349.33 441.00, 346.55 445.18 C 343.77 449.36, 342.22 451.59, 339.42 455.18 C 336.62 458.76, 335.12 460.53, 332.55 463.11 C 329.98 465.69, 328.51 466.50, 326.56 468.08 C 324.61 469.65, 323.96 470.29, 322.80 471.00 C 321.64 471.72, 321.32 471.89, 320.76 471.66 C 320.20 471.43, 320.11 471.07, 319.99 469.85 C 319.88 468.62, 319.92 467.67, 320.21 465.54 C 320.50 463.42, 320.81 461.95, 321.45 459.23 C 322.08 456.50, 322.72 454.79, 323.39 451.91 C 324.07 449.03, 324.69 447.32, 324.83 444.82 C 324.96 442.32, 324.77 441.00, 324.06 439.39 C 323.34 437.78, 322.70 437.06, 321.25 436.78 C 319.80 436.49, 318.75 436.72, 316.81 437.95 C 314.88 439.18, 313.83 440.52, 311.58 442.93 C 309.33 445.33, 308.11 447.06, 305.55 449.98 C 302.99 452.90, 301.48 454.64, 298.78 457.53 C 296.09 460.42, 294.51 462.00, 292.09 464.43 C 289.67 466.86, 288.28 467.88, 286.68 469.67 C 285.08 471.45, 284.69 472.39, 284.10 473.36 C 283.51 474.32, 283.59 474.73, 283.73 474.48 C 283.88 474.22, 284.19 473.79, 284.81 472.07 C 285.44 470.35, 285.71 468.99, 286.84 465.88 C 287.97 462.78, 288.66 460.69, 290.46 456.56 C 292.25 452.43, 293.48 449.87, 295.80 445.24 C 298.12 440.61, 299.55 437.97, 302.04 433.41 C 304.53 428.86, 306.01 426.44, 308.25 422.46 C 310.50 418.48, 311.91 416.61, 313.26 413.50 C 314.61 410.39, 315.00 408.99, 314.98 406.91 C 314.96 404.83, 314.36 403.89, 313.14 403.09 C 311.93 402.30, 310.80 402.29, 308.91 402.92 C 307.02 403.55, 305.84 404.48, 303.71 406.24 C 301.58 408.00, 300.58 409.31, 298.25 411.72 C 295.92 414.12, 294.57 415.58, 292.07 418.26 C 289.57 420.93, 288.18 422.42, 285.73 425.10 C 283.28 427.78, 281.92 429.16, 279.82 431.65 C 277.73 434.13, 276.61 435.39, 275.26 437.51 C 273.91 439.64, 273.54 440.66, 273.06 442.27 C 272.59 443.88, 272.54 444.71, 272.89 445.56 C 273.25 446.40, 273.99 446.66, 274.83 446.48" style="stroke: black; fill: black;"/><path d="M 366.94,454.45 C 367.77 454.98, 368.74 455.08, 370.52 454.92 C 372.31 454.75, 373.56 454.52, 375.88 453.61 C 378.21 452.70, 379.72 451.92, 382.17 450.36 C 384.61 448.81, 385.90 447.72, 388.12 445.83 C 390.34 443.94, 391.49 442.90, 393.28 440.90 C 395.07 438.91, 395.94 437.84, 397.08 435.87 C 398.22 433.90, 398.76 432.87, 398.98 431.04 C 399.20 429.20, 399.07 428.11, 398.19 426.70 C 397.31 425.28, 396.45 424.48, 394.56 423.97 C 392.66 423.47, 391.23 423.37, 388.71 424.18 C 386.19 424.98, 384.71 425.95, 381.96 428.01 C 379.20 430.08, 377.67 431.66, 374.94 434.52 C 372.22 437.39, 370.65 439.13, 368.32 442.34 C 365.99 445.54, 364.77 447.33, 363.29 450.53 C 361.81 453.72, 361.13 455.44, 360.91 458.32 C 360.70 461.19, 361.07 462.69, 362.23 464.91 C 363.39 467.12, 364.41 468.14, 366.71 469.41 C 369.01 470.67, 370.58 471.26, 373.72 471.24 C 376.87 471.21, 378.76 470.54, 382.44 469.30 C 386.12 468.05, 388.16 467.07, 392.12 465.00 C 396.07 462.94, 398.22 461.64, 402.22 458.98 C 406.21 456.32, 408.37 454.63, 412.09 451.69 C 415.81 448.76, 417.65 447.14, 420.82 444.30 C 424.00 441.46, 425.83 440.02, 427.98 437.50 C 430.14 434.98, 430.93 433.37, 431.59 431.69 C 432.26 430.01, 431.53 429.66, 431.30 429.09 C 431.07 428.52, 430.92 428.65, 430.46 428.84 C 430.01 429.02, 430.20 428.89, 429.03 430.02 C 427.86 431.15, 426.75 432.18, 424.60 434.50 C 422.46 436.82, 421.24 438.72, 418.31 441.62 C 415.38 444.53, 413.56 446.13, 409.96 449.01 C 406.36 451.89, 404.21 453.54, 400.29 456.04 C 396.38 458.54, 394.23 459.73, 390.39 461.51 C 386.56 463.29, 384.48 464.04, 381.12 464.92 C 377.76 465.79, 376.11 465.79, 373.61 465.88 C 371.11 465.97, 370.16 465.95, 368.60 465.39 C 367.04 464.84, 366.44 464.42, 365.81 463.10 C 365.18 461.78, 365.14 460.93, 365.46 458.80 C 365.79 456.67, 366.16 455.22, 367.44 452.45 C 368.72 449.68, 369.70 447.86, 371.87 444.94 C 374.03 442.03, 375.59 440.34, 378.26 437.87 C 380.92 435.40, 382.68 434.24, 385.19 432.59 C 387.70 430.94, 389.03 430.48, 390.83 429.61 C 392.62 428.74, 393.27 428.50, 394.17 428.25 C 395.07 428.00, 395.19 428.02, 395.34 428.36 C 395.48 428.71, 395.38 429.04, 394.89 429.98 C 394.39 430.92, 393.98 431.66, 392.87 433.08 C 391.75 434.51, 391.02 435.49, 389.34 437.12 C 387.65 438.75, 386.55 439.67, 384.45 441.23 C 382.34 442.79, 381.04 443.58, 378.80 444.92 C 376.57 446.26, 375.23 446.86, 373.27 447.93 C 371.30 448.99, 370.37 449.38, 368.99 450.25 C 367.62 451.13, 366.80 451.45, 366.39 452.29 C 365.98 453.13, 366.11 453.93, 366.94 454.45" style="stroke: black; fill: black;"/><path d="M 447.43,407.07 C 446.57 407.33, 445.73 407.55, 445.23 408.70 C 444.73 409.85, 444.26 411.75, 444.93 412.82 C 445.60 413.89, 447.37 414.56, 448.57 414.06 C 449.77 413.55, 450.76 411.61, 450.95 410.28 C 451.13 408.96, 450.20 408.06, 449.50 407.42 C 448.80 406.78, 448.28 406.82, 447.43 407.07" style="stroke: black; fill: black;"/><path d="M 449.31,446.09 C 448.39 446.20, 447.70 446.71, 446.61 447.80 C 445.52 448.90, 444.90 449.80, 443.86 451.57 C 442.81 453.34, 442.28 454.62, 441.38 456.65 C 440.48 458.68, 439.96 459.88, 439.35 461.73 C 438.74 463.58, 438.34 464.54, 438.34 465.90 C 438.33 467.26, 438.59 467.97, 439.32 468.53 C 440.06 469.10, 440.80 469.24, 442.02 468.72 C 443.24 468.19, 444.01 467.48, 445.42 465.90 C 446.83 464.32, 447.54 463.02, 449.06 460.80 C 450.58 458.58, 451.42 457.05, 453.03 454.81 C 454.65 452.57, 455.69 451.32, 457.12 449.59 C 458.55 447.87, 459.17 447.06, 460.18 446.20 C 461.18 445.33, 461.47 445.19, 462.14 445.26 C 462.80 445.34, 462.84 445.72, 463.51 446.57 C 464.18 447.42, 464.35 448.25, 465.47 449.52 C 466.60 450.78, 467.36 451.70, 469.12 452.89 C 470.88 454.07, 471.97 454.70, 474.26 455.43 C 476.56 456.16, 477.87 456.46, 480.60 456.54 C 483.32 456.61, 484.89 456.51, 487.90 455.82 C 490.91 455.12, 492.58 454.42, 495.65 453.07 C 498.72 451.72, 500.42 450.78, 503.25 449.06 C 506.07 447.33, 507.60 446.35, 509.76 444.45 C 511.91 442.55, 512.90 441.47, 514.02 439.56 C 515.14 437.64, 515.51 436.54, 515.35 434.86 C 515.19 433.18, 514.64 432.15, 513.22 431.17 C 511.80 430.18, 510.58 429.83, 508.26 429.94 C 505.93 430.05, 504.30 430.32, 501.57 431.69 C 498.84 433.07, 497.33 434.49, 494.62 436.82 C 491.90 439.15, 490.39 440.61, 488.01 443.35 C 485.63 446.09, 484.20 447.61, 482.71 450.51 C 481.22 453.41, 480.66 455.09, 480.56 457.83 C 480.47 460.58, 480.84 462.09, 482.25 464.24 C 483.66 466.39, 484.86 467.46, 487.60 468.60 C 490.35 469.75, 492.21 469.87, 495.99 469.95 C 499.77 470.03, 502.42 469.55, 506.50 469.00 C 510.58 468.45, 513.05 468.06, 516.40 467.18 C 519.76 466.30, 521.99 465.54, 523.27 464.61 C 524.56 463.69, 524.36 462.87, 522.83 462.54 C 521.30 462.21, 519.00 462.59, 515.62 462.96 C 512.24 463.33, 509.84 463.98, 505.94 464.40 C 502.03 464.83, 499.43 465.16, 496.10 465.08 C 492.77 465.00, 491.39 464.62, 489.28 463.99 C 487.17 463.37, 486.42 463.12, 485.56 461.97 C 484.70 460.81, 484.66 460.04, 484.98 458.23 C 485.30 456.43, 485.82 455.25, 487.16 452.93 C 488.51 450.61, 489.56 449.01, 491.71 446.63 C 493.87 444.25, 495.39 442.86, 497.94 441.02 C 500.50 439.18, 502.21 438.60, 504.48 437.45 C 506.76 436.30, 507.82 435.90, 509.30 435.26 C 510.78 434.61, 511.31 434.35, 511.90 434.23 C 512.48 434.11, 512.54 434.15, 512.23 434.65 C 511.92 435.16, 511.56 435.64, 510.36 436.77 C 509.17 437.89, 508.22 438.70, 506.25 440.28 C 504.28 441.85, 503.04 443.05, 500.51 444.64 C 497.98 446.23, 496.36 447.11, 493.60 448.24 C 490.83 449.37, 489.25 449.73, 486.67 450.28 C 484.08 450.83, 482.83 451.00, 480.69 450.99 C 478.56 450.98, 477.63 450.80, 475.98 450.23 C 474.33 449.66, 473.75 449.10, 472.45 448.14 C 471.14 447.18, 470.69 446.44, 469.45 445.41 C 468.20 444.39, 467.64 443.75, 466.23 443.01 C 464.82 442.28, 464.06 441.84, 462.42 441.73 C 460.77 441.62, 459.85 441.67, 458.01 442.46 C 456.16 443.25, 455.16 444.00, 453.19 445.68 C 451.23 447.37, 450.15 448.68, 448.17 450.88 C 446.20 453.08, 444.98 454.42, 443.30 456.68 C 441.62 458.94, 440.71 460.21, 439.77 462.17 C 438.84 464.14, 438.59 465.23, 438.63 466.51 C 438.67 467.79, 439.22 468.35, 439.98 468.58 C 440.74 468.81, 441.48 468.54, 442.44 467.67 C 443.40 466.79, 443.80 465.85, 444.78 464.21 C 445.77 462.56, 446.39 461.41, 447.36 459.45 C 448.33 457.49, 448.91 456.24, 449.63 454.39 C 450.35 452.55, 450.64 451.64, 450.95 450.22 C 451.26 448.80, 451.52 448.10, 451.19 447.28 C 450.86 446.45, 450.22 445.99, 449.31 446.09" style="stroke: black; fill: black;"/><path d="M 618.97,437.77 C 619.04 436.97, 618.86 436.34, 618.08 435.54 C 617.29 434.75, 616.57 434.22, 615.05 433.79 C 613.53 433.36, 612.49 433.21, 610.48 433.39 C 608.47 433.57, 607.36 433.83, 605.01 434.70 C 602.67 435.57, 601.26 436.18, 598.76 437.73 C 596.27 439.28, 594.88 440.42, 592.52 442.45 C 590.16 444.48, 588.76 445.67, 586.98 447.88 C 585.19 450.09, 584.33 451.40, 583.59 453.50 C 582.84 455.61, 582.76 456.77, 583.25 458.41 C 583.73 460.06, 584.44 460.90, 586.02 461.73 C 587.60 462.56, 588.83 462.77, 591.16 462.54 C 593.50 462.32, 594.99 461.88, 597.69 460.59 C 600.40 459.30, 601.84 458.08, 604.70 456.11 C 607.55 454.14, 609.14 452.90, 611.97 450.73 C 614.80 448.57, 616.35 447.33, 618.85 445.26 C 621.34 443.19, 622.77 442.16, 624.46 440.38 C 626.15 438.61, 626.79 437.61, 627.29 436.39 C 627.80 435.16, 627.56 434.55, 626.98 434.27 C 626.40 433.98, 625.57 433.96, 624.39 434.95 C 623.21 435.95, 622.22 436.83, 621.07 439.24 C 619.92 441.66, 619.69 443.55, 618.63 447.04 C 617.57 450.53, 617.00 452.61, 615.77 456.68 C 614.53 460.76, 613.85 463.05, 612.45 467.43 C 611.04 471.82, 610.31 474.21, 608.75 478.61 C 607.19 483.00, 606.41 485.29, 604.64 489.40 C 602.87 493.52, 601.89 495.63, 599.89 499.18 C 597.89 502.72, 596.78 504.42, 594.64 507.14 C 592.49 509.85, 591.19 510.94, 589.17 512.73 C 587.15 514.51, 586.16 515.22, 584.54 516.06 C 582.92 516.91, 582.18 517.07, 581.07 516.96 C 579.96 516.86, 579.59 516.56, 579.00 515.53 C 578.42 514.49, 578.25 513.73, 578.14 511.79 C 578.02 509.85, 577.90 508.59, 578.44 505.83 C 578.97 503.07, 579.30 501.28, 580.81 497.97 C 582.31 494.67, 583.36 492.78, 585.95 489.29 C 588.55 485.80, 590.24 483.97, 593.78 480.53 C 597.32 477.08, 599.46 475.38, 603.64 472.09 C 607.81 468.79, 610.13 467.17, 614.65 464.06 C 619.17 460.94, 621.62 459.36, 626.22 456.49 C 630.83 453.62, 633.26 452.28, 637.67 449.70 C 642.08 447.12, 644.36 445.88, 648.28 443.60 C 652.19 441.33, 654.12 440.23, 657.25 438.31 C 660.38 436.39, 661.93 435.69, 663.92 434.00 C 665.91 432.30, 666.58 431.33, 667.20 429.84 C 667.82 428.36, 667.69 427.56, 667.01 426.56 C 666.32 425.57, 665.49 425.03, 663.79 424.89 C 662.10 424.74, 660.77 424.87, 658.53 425.84 C 656.28 426.82, 654.92 427.85, 652.59 429.77 C 650.25 431.70, 649.08 433.08, 646.87 435.46 C 644.65 437.85, 643.21 439.14, 641.52 441.70 C 639.83 444.26, 639.07 445.78, 638.43 448.28 C 637.78 450.78, 637.69 452.14, 638.30 454.22 C 638.91 456.30, 639.62 457.41, 641.49 458.69 C 643.36 459.97, 644.78 460.60, 647.66 460.62 C 650.54 460.64, 652.30 460.05, 655.89 458.77 C 659.47 457.50, 661.46 456.49, 665.57 454.24 C 669.68 452.00, 671.98 450.58, 676.42 447.57 C 680.87 444.56, 683.25 442.76, 687.80 439.19 C 692.34 435.63, 694.76 433.57, 699.16 429.76 C 703.56 425.95, 705.81 423.86, 709.79 420.14 C 713.78 416.43, 715.75 414.46, 719.08 411.19 C 722.41 407.91, 724.06 406.34, 726.46 403.74 C 728.86 401.15, 729.96 400.05, 731.10 398.20 C 732.23 396.35, 732.36 395.46, 732.14 394.48 C 731.93 393.51, 731.22 393.07, 730.02 393.32 C 728.82 393.57, 727.66 393.94, 726.14 395.73 C 724.62 397.52, 724.06 399.15, 722.44 402.28 C 720.82 405.40, 719.99 407.47, 718.05 411.35 C 716.11 415.22, 714.87 417.46, 712.75 421.66 C 710.64 425.85, 709.48 428.20, 707.47 432.31 C 705.47 436.42, 704.45 438.64, 702.75 442.21 C 701.04 445.79, 700.07 447.43, 698.94 450.19 C 697.81 452.95, 697.47 454.22, 697.10 456.03 C 696.73 457.85, 696.96 458.40, 697.08 459.26 C 697.21 460.13, 697.44 460.12, 697.71 460.35 C 697.97 460.59, 698.10 460.54, 698.40 460.43 C 698.70 460.33, 698.70 460.44, 699.21 459.83 C 699.73 459.22, 700.15 458.95, 700.96 457.37 C 701.77 455.79, 702.19 454.63, 703.25 451.91 C 704.31 449.19, 704.76 447.38, 706.25 443.77 C 707.73 440.15, 708.72 437.93, 710.67 433.84 C 712.61 429.76, 713.77 427.43, 715.97 423.34 C 718.18 419.25, 719.45 417.04, 721.71 413.40 C 723.98 409.75, 725.41 408.01, 727.31 405.13 C 729.21 402.25, 730.29 401.03, 731.23 399.00 C 732.16 396.96, 732.12 396.02, 732.00 394.95 C 731.89 393.88, 731.49 393.51, 730.65 393.65 C 729.81 393.80, 729.23 394.18, 727.80 395.69 C 726.37 397.19, 725.72 398.51, 723.52 401.17 C 721.32 403.83, 719.94 405.59, 716.81 408.98 C 713.67 412.36, 711.73 414.34, 707.84 418.08 C 703.95 421.82, 701.72 423.91, 697.36 427.68 C 693.00 431.45, 690.59 433.49, 686.05 436.93 C 681.52 440.38, 679.13 442.13, 674.69 444.92 C 670.26 447.71, 667.92 449.01, 663.87 450.88 C 659.83 452.74, 657.74 453.38, 654.47 454.26 C 651.19 455.14, 649.69 455.10, 647.49 455.28 C 645.29 455.46, 644.56 455.53, 643.47 455.15 C 642.38 454.77, 642.13 454.43, 642.04 453.38 C 641.95 452.33, 642.20 451.57, 643.02 449.89 C 643.84 448.20, 644.56 447.03, 646.14 444.94 C 647.72 442.85, 648.82 441.44, 650.91 439.44 C 653.01 437.44, 654.46 436.52, 656.62 434.95 C 658.77 433.38, 660.02 432.75, 661.68 431.59 C 663.34 430.43, 664.08 429.95, 664.91 429.14 C 665.74 428.34, 665.89 427.81, 665.83 427.56 C 665.77 427.31, 665.56 427.30, 664.61 427.88 C 663.66 428.46, 662.98 429.03, 661.08 430.47 C 659.17 431.91, 658.01 433.01, 655.11 435.08 C 652.21 437.15, 650.37 438.40, 646.58 440.81 C 642.79 443.23, 640.53 444.51, 636.16 447.16 C 631.79 449.82, 629.34 451.18, 624.72 454.09 C 620.10 457.00, 617.62 458.58, 613.04 461.71 C 608.46 464.84, 606.11 466.45, 601.81 469.74 C 597.51 473.03, 595.30 474.72, 591.56 478.18 C 587.81 481.64, 585.99 483.47, 583.07 487.04 C 580.14 490.60, 578.90 492.48, 576.93 496.01 C 574.96 499.53, 574.04 501.38, 573.23 504.67 C 572.42 507.97, 572.37 509.78, 572.86 512.48 C 573.35 515.17, 574.14 516.48, 575.67 518.14 C 577.19 519.81, 578.35 520.40, 580.49 520.79 C 582.62 521.18, 583.97 521.01, 586.33 520.09 C 588.69 519.17, 590.00 518.31, 592.30 516.20 C 594.60 514.08, 595.69 512.57, 597.84 509.51 C 599.98 506.45, 601.05 504.65, 603.03 500.89 C 605.02 497.13, 605.97 494.96, 607.75 490.73 C 609.53 486.50, 610.31 484.18, 611.92 479.75 C 613.54 475.32, 614.29 472.92, 615.83 468.57 C 617.37 464.22, 618.09 461.95, 619.61 458.01 C 621.14 454.07, 621.95 452.10, 623.46 448.89 C 624.96 445.68, 626.15 444.34, 627.14 441.95 C 628.14 439.55, 628.34 438.49, 628.42 436.92 C 628.49 435.34, 628.21 434.69, 627.51 434.07 C 626.81 433.46, 626.23 433.36, 624.91 433.85 C 623.59 434.35, 622.76 435.03, 620.90 436.55 C 619.04 438.06, 617.97 439.38, 615.60 441.45 C 613.23 443.52, 611.80 444.84, 609.06 446.88 C 606.32 448.92, 604.71 450.05, 601.89 451.64 C 599.08 453.23, 597.40 453.72, 595.00 454.82 C 592.60 455.91, 591.49 456.44, 589.89 457.13 C 588.30 457.83, 587.73 458.13, 587.02 458.29 C 586.31 458.45, 586.20 458.46, 586.35 457.93 C 586.50 457.41, 586.79 456.92, 587.78 455.67 C 588.77 454.42, 589.58 453.43, 591.29 451.69 C 592.99 449.95, 594.15 448.71, 596.30 446.98 C 598.45 445.26, 599.87 444.39, 602.05 443.04 C 604.24 441.69, 605.42 441.04, 607.22 440.26 C 609.02 439.47, 609.77 439.29, 611.06 439.13 C 612.36 438.98, 612.75 439.33, 613.71 439.48 C 614.66 439.63, 615.04 439.87, 615.84 439.89 C 616.64 439.91, 617.09 440.00, 617.71 439.58 C 618.34 439.16, 618.89 438.58, 618.97 437.77" style="stroke: black; fill: black;"/><path d="M 687.07,443.68 C 687.47 444.40, 687.97 444.79, 689.32 445.24 C 690.66 445.70, 691.59 445.94, 693.80 445.97 C 696.00 446.00, 697.45 446.01, 700.35 445.40 C 703.24 444.80, 704.92 444.11, 708.28 442.95 C 711.64 441.79, 713.42 441.15, 717.14 439.59 C 720.85 438.04, 722.86 437.15, 726.85 435.19 C 730.85 433.23, 732.99 432.10, 737.10 429.80 C 741.21 427.49, 743.37 426.21, 747.42 423.65 C 751.47 421.09, 753.55 419.64, 757.36 417.00 C 761.18 414.36, 763.14 412.93, 766.48 410.45 C 769.82 407.97, 771.50 406.73, 774.07 404.59 C 776.64 402.46, 777.90 401.49, 779.33 399.77 C 780.76 398.05, 781.17 397.03, 781.20 395.98 C 781.24 394.93, 780.68 394.31, 779.51 394.52 C 778.35 394.72, 777.11 395.06, 775.38 397.01 C 773.64 398.95, 772.98 400.84, 770.83 404.25 C 768.69 407.65, 767.33 409.95, 764.65 414.05 C 761.96 418.15, 760.25 420.54, 757.41 424.76 C 754.56 428.98, 753.02 431.29, 750.42 435.14 C 747.83 438.99, 746.51 440.95, 744.44 444.02 C 742.36 447.09, 741.24 448.35, 740.04 450.51 C 738.83 452.67, 738.77 453.56, 738.41 454.80 C 738.04 456.04, 738.08 456.23, 738.20 456.72 C 738.33 457.21, 738.54 457.35, 739.04 457.25 C 739.54 457.15, 739.75 457.11, 740.71 456.23 C 741.66 455.35, 742.41 454.89, 743.81 452.86 C 745.21 450.83, 745.82 449.27, 747.71 446.10 C 749.60 442.93, 750.77 440.89, 753.26 437.00 C 755.75 433.11, 757.27 430.81, 760.17 426.65 C 763.06 422.49, 764.78 420.12, 767.73 416.22 C 770.68 412.32, 772.40 410.28, 774.91 407.15 C 777.43 404.03, 778.97 402.83, 780.29 400.59 C 781.61 398.35, 781.63 397.19, 781.51 395.97 C 781.38 394.74, 780.75 394.37, 779.66 394.47 C 778.56 394.57, 777.74 395.09, 776.05 396.47 C 774.36 397.85, 773.57 399.13, 771.21 401.35 C 768.84 403.57, 767.39 404.99, 764.23 407.57 C 761.08 410.15, 759.14 411.59, 755.43 414.25 C 751.71 416.91, 749.66 418.35, 745.66 420.86 C 741.67 423.37, 739.53 424.61, 735.45 426.81 C 731.38 429.01, 729.25 430.08, 725.29 431.86 C 721.33 433.65, 719.33 434.46, 715.66 435.73 C 711.99 437.00, 710.22 437.52, 706.95 438.22 C 703.68 438.91, 702.02 438.88, 699.31 439.21 C 696.61 439.54, 695.39 439.58, 693.43 439.86 C 691.47 440.15, 690.73 440.27, 689.51 440.63 C 688.29 440.98, 687.82 441.01, 687.33 441.62 C 686.84 442.23, 686.67 442.96, 687.07 443.68" style="stroke: black; fill: black;"/><path d="M 731.73,445.14 C 731.94 445.87, 732.24 446.35, 733.36 446.93 C 734.48 447.51, 735.29 447.84, 737.35 448.06 C 739.40 448.27, 740.79 448.41, 743.63 448.02 C 746.46 447.63, 748.18 447.01, 751.52 446.10 C 754.87 445.19, 756.74 444.61, 760.36 443.49 C 763.99 442.36, 765.97 441.69, 769.65 440.47 C 773.32 439.25, 775.31 438.51, 778.74 437.39 C 782.18 436.28, 784.22 435.83, 786.82 434.87 C 789.43 433.91, 790.60 433.24, 791.78 432.60 C 792.97 431.96, 793.08 431.56, 792.74 431.66 C 792.40 431.76, 791.53 431.93, 790.08 433.09 C 788.63 434.25, 787.33 435.34, 785.49 437.47 C 783.64 439.60, 782.46 441.25, 780.85 443.75 C 779.23 446.26, 778.25 447.72, 777.41 449.98 C 776.57 452.24, 776.38 453.37, 776.65 455.05 C 776.92 456.74, 777.37 457.56, 778.75 458.41 C 780.14 459.26, 781.30 459.59, 783.58 459.31 C 785.85 459.03, 787.29 458.43, 790.12 457.02 C 792.96 455.60, 794.45 454.26, 797.75 452.24 C 801.06 450.22, 803.05 448.97, 806.67 446.90 C 810.29 444.82, 812.37 443.61, 815.85 441.86 C 819.32 440.11, 821.25 439.33, 824.05 438.13 C 826.85 436.93, 828.24 436.50, 829.84 435.86 C 831.43 435.22, 831.83 434.95, 832.03 434.93 C 832.24 434.91, 831.76 435.02, 830.88 435.75 C 829.99 436.49, 829.05 437.14, 827.62 438.61 C 826.20 440.08, 825.17 441.24, 823.75 443.09 C 822.34 444.94, 821.39 446.07, 820.57 447.87 C 819.74 449.67, 819.42 450.73, 819.65 452.08 C 819.87 453.44, 820.38 454.17, 821.70 454.64 C 823.03 455.10, 824.11 455.12, 826.29 454.41 C 828.46 453.70, 829.82 452.72, 832.58 451.09 C 835.33 449.45, 837.00 448.05, 840.08 446.23 C 843.15 444.40, 844.99 443.35, 847.95 441.96 C 850.90 440.56, 852.52 440.10, 854.84 439.25 C 857.15 438.41, 858.17 438.05, 859.54 437.74 C 860.91 437.44, 861.26 437.45, 861.70 437.72 C 862.14 437.99, 862.01 438.27, 861.74 439.08 C 861.48 439.89, 860.92 440.41, 860.38 441.76 C 859.84 443.12, 859.35 444.12, 859.06 445.86 C 858.77 447.59, 858.65 448.71, 858.95 450.43 C 859.25 452.15, 859.49 453.13, 860.57 454.46 C 861.65 455.78, 862.45 456.48, 864.35 457.05 C 866.25 457.62, 867.52 457.73, 870.08 457.32 C 872.63 456.91, 874.09 456.26, 877.11 455.00 C 880.14 453.73, 881.86 452.72, 885.19 451.00 C 888.52 449.28, 890.43 448.19, 893.77 446.40 C 897.11 444.61, 898.92 443.64, 901.88 442.05 C 904.83 440.46, 906.42 439.80, 908.53 438.44 C 910.65 437.09, 911.51 436.43, 912.46 435.26 C 913.41 434.10, 913.49 433.54, 913.28 432.62 C 913.08 431.70, 912.54 431.13, 911.42 430.65 C 910.29 430.17, 909.34 429.96, 907.65 430.21 C 905.95 430.45, 904.89 430.93, 902.95 431.87 C 901.01 432.81, 899.94 433.55, 897.94 434.90 C 895.94 436.26, 894.75 437.05, 892.93 438.66 C 891.11 440.27, 890.12 441.24, 888.84 442.97 C 887.55 444.71, 886.96 445.66, 886.48 447.34 C 886.00 449.02, 885.94 449.95, 886.44 451.38 C 886.93 452.80, 887.51 453.61, 888.96 454.47 C 890.40 455.33, 891.55 455.65, 893.68 455.68 C 895.80 455.72, 897.11 455.35, 899.59 454.64 C 902.08 453.92, 903.47 453.24, 906.10 452.09 C 908.72 450.95, 910.26 450.24, 912.72 448.92 C 915.19 447.60, 916.70 446.73, 918.42 445.49 C 920.15 444.26, 920.79 443.44, 921.33 442.75 C 921.87 442.05, 921.65 441.70, 921.12 442.02 C 920.60 442.33, 919.82 442.71, 918.70 444.32 C 917.58 445.94, 916.83 447.29, 915.51 450.07 C 914.20 452.85, 913.62 454.79, 912.12 458.23 C 910.62 461.67, 909.75 463.60, 908.01 467.29 C 906.27 470.99, 905.33 472.98, 903.40 476.72 C 901.46 480.45, 900.44 482.43, 898.34 485.96 C 896.24 489.50, 895.14 491.32, 892.92 494.38 C 890.70 497.44, 889.47 498.91, 887.22 501.26 C 884.97 503.62, 883.71 504.54, 881.68 506.13 C 879.64 507.73, 878.68 508.38, 877.04 509.25 C 875.41 510.11, 874.59 510.26, 873.49 510.44 C 872.40 510.61, 872.04 510.53, 871.58 510.10 C 871.12 509.68, 871.11 509.31, 871.19 508.31 C 871.27 507.30, 871.36 506.60, 871.99 505.06 C 872.62 503.53, 873.03 502.66, 874.32 500.63 C 875.62 498.61, 876.28 497.30, 878.46 494.94 C 880.63 492.59, 882.05 491.26, 885.18 488.87 C 888.32 486.48, 890.27 485.27, 894.13 482.99 C 897.99 480.72, 900.25 479.60, 904.50 477.49 C 908.75 475.39, 911.06 474.33, 915.37 472.46 C 919.68 470.60, 921.88 469.78, 926.05 468.18 C 930.22 466.58, 932.63 465.79, 936.23 464.48 C 939.82 463.18, 941.58 462.81, 944.03 461.66 C 946.48 460.50, 947.71 459.61, 948.48 458.70 C 949.24 457.78, 949.03 457.26, 947.86 457.09 C 946.68 456.93, 945.21 457.13, 942.61 457.88 C 940.00 458.62, 938.40 459.40, 934.83 460.82 C 931.27 462.24, 928.93 463.26, 924.78 464.99 C 920.62 466.71, 918.42 467.56, 914.07 469.45 C 909.72 471.35, 907.37 472.39, 903.03 474.46 C 898.68 476.54, 896.39 477.63, 892.34 479.84 C 888.29 482.05, 886.26 483.19, 882.79 485.51 C 879.33 487.83, 877.68 489.04, 875.01 491.42 C 872.35 493.79, 871.12 494.98, 869.46 497.38 C 867.79 499.78, 867.25 501.10, 866.68 503.42 C 866.11 505.74, 866.10 507.06, 866.61 508.97 C 867.11 510.88, 867.81 511.86, 869.21 512.97 C 870.61 514.08, 871.65 514.42, 873.60 514.51 C 875.55 514.60, 876.73 514.34, 878.96 513.43 C 881.19 512.52, 882.45 511.82, 884.74 509.96 C 887.03 508.10, 888.13 506.80, 890.40 504.13 C 892.67 501.46, 893.87 499.88, 896.10 496.62 C 898.33 493.37, 899.43 491.48, 901.55 487.85 C 903.67 484.22, 904.71 482.22, 906.72 478.47 C 908.73 474.72, 909.68 472.72, 911.61 469.10 C 913.54 465.48, 914.48 463.61, 916.35 460.36 C 918.22 457.11, 919.49 455.61, 920.98 452.84 C 922.48 450.08, 923.29 448.73, 923.82 446.53 C 924.34 444.34, 924.21 443.24, 923.59 441.88 C 922.97 440.52, 922.26 440.01, 920.72 439.74 C 919.18 439.47, 918.05 439.79, 915.89 440.53 C 913.74 441.27, 912.40 442.28, 909.95 443.44 C 907.51 444.61, 906.10 445.33, 903.65 446.35 C 901.20 447.36, 899.82 447.82, 897.71 448.52 C 895.59 449.22, 894.57 449.45, 893.08 449.85 C 891.59 450.25, 890.98 450.38, 890.25 450.53 C 889.53 450.67, 889.42 450.84, 889.47 450.59 C 889.53 450.34, 889.84 450.08, 890.54 449.27 C 891.25 448.46, 891.76 447.75, 893.00 446.53 C 894.23 445.32, 895.07 444.48, 896.72 443.19 C 898.37 441.91, 899.42 441.16, 901.23 440.11 C 903.04 439.05, 904.07 438.67, 905.76 437.92 C 907.46 437.17, 908.43 437.09, 909.70 436.35 C 910.96 435.60, 911.56 435.00, 912.09 434.21 C 912.61 433.41, 912.67 432.78, 912.33 432.38 C 911.99 431.98, 911.66 431.88, 910.39 432.22 C 909.12 432.56, 908.15 432.95, 905.99 434.10 C 903.83 435.24, 902.44 436.28, 899.57 437.95 C 896.71 439.62, 894.95 440.71, 891.67 442.46 C 888.38 444.21, 886.45 445.24, 883.13 446.68 C 879.82 448.13, 877.96 448.73, 875.10 449.70 C 872.24 450.66, 870.86 450.97, 868.85 451.53 C 866.84 452.08, 866.07 452.34, 865.03 452.48 C 863.98 452.61, 863.80 452.61, 863.62 452.21 C 863.43 451.81, 863.77 451.48, 864.10 450.48 C 864.42 449.48, 864.84 448.70, 865.26 447.20 C 865.67 445.71, 866.05 444.72, 866.17 443.01 C 866.29 441.29, 866.40 440.20, 865.88 438.63 C 865.35 437.06, 864.86 436.14, 863.55 435.15 C 862.25 434.16, 861.41 433.83, 859.36 433.67 C 857.30 433.52, 855.97 433.61, 853.27 434.38 C 850.57 435.15, 848.98 436.05, 845.86 437.52 C 842.73 438.99, 840.90 440.10, 837.63 441.72 C 834.36 443.33, 832.33 444.11, 829.51 445.59 C 826.69 447.07, 825.18 447.81, 823.52 449.10 C 821.85 450.40, 821.47 451.27, 821.19 452.06 C 820.90 452.85, 821.30 453.16, 822.10 453.04 C 822.91 452.92, 823.76 452.56, 825.19 451.46 C 826.62 450.36, 827.68 449.36, 829.24 447.54 C 830.81 445.73, 831.93 444.47, 833.00 442.39 C 834.07 440.31, 834.52 438.97, 834.59 437.14 C 834.67 435.31, 834.47 434.30, 833.36 433.25 C 832.25 432.19, 831.28 431.74, 829.05 431.85 C 826.82 431.96, 825.23 432.53, 822.21 433.80 C 819.19 435.08, 817.45 436.31, 813.94 438.20 C 810.43 440.10, 808.35 441.30, 804.66 443.28 C 800.97 445.26, 798.91 446.44, 795.49 448.11 C 792.06 449.77, 790.22 450.40, 787.55 451.62 C 784.87 452.84, 783.69 453.36, 782.11 454.19 C 780.53 455.01, 780.10 455.51, 779.65 455.74 C 779.20 455.98, 779.35 455.99, 779.84 455.36 C 780.33 454.72, 780.82 454.11, 782.09 452.57 C 783.36 451.04, 784.37 449.81, 786.17 447.66 C 787.97 445.51, 789.45 444.18, 791.10 441.83 C 792.74 439.48, 793.67 438.02, 794.37 435.92 C 795.07 433.82, 795.20 432.70, 794.61 431.33 C 794.01 429.97, 793.27 429.39, 791.38 429.10 C 789.50 428.80, 788.01 429.05, 785.18 429.87 C 782.35 430.70, 780.62 431.92, 777.25 433.24 C 773.88 434.56, 771.95 435.28, 768.33 436.46 C 764.71 437.65, 762.72 438.27, 759.14 439.18 C 755.57 440.09, 753.70 440.54, 750.46 441.01 C 747.22 441.48, 745.57 441.36, 742.96 441.53 C 740.34 441.70, 739.16 441.66, 737.37 441.87 C 735.57 442.07, 734.98 442.27, 733.97 442.55 C 732.96 442.84, 732.77 442.78, 732.32 443.29 C 731.87 443.81, 731.52 444.41, 731.73 445.14" style="stroke: black; fill: black;"/><path d="M 1015.63,434.50 C 1016.44 434.66, 1016.94 434.27, 1017.93 433.81 C 1018.92 433.36, 1019.39 433.00, 1020.59 432.22 C 1021.79 431.43, 1022.53 430.82, 1023.93 429.88 C 1025.33 428.94, 1026.10 428.36, 1027.61 427.51 C 1029.11 426.66, 1029.94 426.23, 1031.45 425.64 C 1032.95 425.05, 1033.81 424.85, 1035.13 424.57 C 1036.46 424.30, 1037.14 424.24, 1038.06 424.27 C 1038.99 424.30, 1039.40 424.25, 1039.76 424.73 C 1040.13 425.22, 1040.13 425.53, 1039.89 426.69 C 1039.66 427.85, 1039.37 428.69, 1038.58 430.53 C 1037.79 432.37, 1037.17 433.62, 1035.93 435.91 C 1034.70 438.20, 1033.77 439.67, 1032.41 441.99 C 1031.04 444.30, 1030.03 445.54, 1029.11 447.48 C 1028.19 449.42, 1027.80 450.41, 1027.82 451.68 C 1027.85 452.96, 1028.26 453.54, 1029.26 453.85 C 1030.25 454.16, 1031.12 454.11, 1032.79 453.21 C 1034.47 452.31, 1035.57 451.38, 1037.66 449.35 C 1039.74 447.33, 1040.76 445.52, 1043.23 443.09 C 1045.70 440.66, 1047.26 439.29, 1049.99 437.22 C 1052.72 435.14, 1054.47 434.25, 1056.89 432.73 C 1059.30 431.22, 1060.51 430.53, 1062.05 429.65 C 1063.59 428.77, 1064.11 428.45, 1064.58 428.32 C 1065.05 428.19, 1064.79 428.32, 1064.41 428.99 C 1064.03 429.66, 1063.52 430.26, 1062.69 431.67 C 1061.85 433.09, 1061.17 434.16, 1060.24 436.08 C 1059.30 438.00, 1058.69 439.26, 1058.02 441.27 C 1057.34 443.28, 1056.85 444.41, 1056.86 446.13 C 1056.87 447.85, 1057.09 448.81, 1058.06 449.85 C 1059.03 450.89, 1059.88 451.32, 1061.70 451.33 C 1063.52 451.34, 1064.81 451.07, 1067.18 449.91 C 1069.55 448.74, 1070.80 447.45, 1073.53 445.50 C 1076.26 443.56, 1077.86 442.19, 1080.82 440.18 C 1083.79 438.16, 1085.61 437.05, 1088.36 435.43 C 1091.12 433.80, 1092.64 433.12, 1094.60 432.04 C 1096.56 430.96, 1097.31 430.44, 1098.14 430.02 C 1098.97 429.60, 1098.96 429.51, 1098.75 429.93 C 1098.53 430.34, 1097.91 430.80, 1097.08 432.11 C 1096.24 433.42, 1095.50 434.47, 1094.57 436.48 C 1093.64 438.48, 1093.02 439.87, 1092.42 442.13 C 1091.82 444.38, 1091.47 445.69, 1091.59 447.75 C 1091.70 449.81, 1091.94 450.96, 1093.01 452.43 C 1094.08 453.90, 1094.95 454.56, 1096.94 455.12 C 1098.94 455.68, 1100.29 455.79, 1102.97 455.23 C 1105.65 454.68, 1107.17 453.83, 1110.34 452.34 C 1113.52 450.84, 1115.30 449.71, 1118.85 447.76 C 1122.39 445.80, 1124.42 444.61, 1128.09 442.56 C 1131.76 440.51, 1133.78 439.32, 1137.19 437.51 C 1140.61 435.71, 1142.52 435.04, 1145.15 433.52 C 1147.78 432.01, 1149.16 431.21, 1150.35 429.92 C 1151.54 428.64, 1151.66 427.79, 1151.10 427.09 C 1150.53 426.39, 1149.52 425.99, 1147.53 426.41 C 1145.53 426.83, 1143.92 427.54, 1141.12 429.19 C 1138.32 430.84, 1136.59 432.42, 1133.53 434.67 C 1130.46 436.93, 1128.58 438.25, 1125.81 440.47 C 1123.05 442.69, 1121.47 443.74, 1119.69 445.78 C 1117.91 447.82, 1117.32 448.97, 1116.90 450.68 C 1116.49 452.39, 1116.69 453.26, 1117.60 454.32 C 1118.51 455.37, 1119.53 455.87, 1121.44 455.96 C 1123.34 456.06, 1124.69 455.84, 1127.13 454.81 C 1129.58 453.78, 1130.96 452.65, 1133.65 450.79 C 1136.34 448.94, 1137.85 447.65, 1140.59 445.52 C 1143.33 443.38, 1144.91 442.18, 1147.36 440.11 C 1149.81 438.05, 1151.40 436.97, 1152.85 435.20 C 1154.30 433.43, 1154.60 432.32, 1154.60 431.27 C 1154.60 430.22, 1153.98 429.85, 1152.84 429.95 C 1151.71 430.05, 1150.45 430.47, 1148.92 431.76 C 1147.39 433.05, 1146.20 434.30, 1145.21 436.40 C 1144.22 438.49, 1144.05 440.12, 1143.95 442.25 C 1143.85 444.38, 1143.93 445.46, 1144.71 447.04 C 1145.50 448.62, 1146.19 449.36, 1147.89 450.15 C 1149.58 450.94, 1150.80 451.21, 1153.21 450.99 C 1155.61 450.77, 1157.08 450.27, 1159.90 449.05 C 1162.73 447.82, 1164.28 446.65, 1167.33 444.86 C 1170.38 443.06, 1172.13 441.92, 1175.17 440.07 C 1178.21 438.23, 1179.96 437.26, 1182.52 435.63 C 1185.08 434.01, 1186.48 433.14, 1187.95 431.95 C 1189.42 430.77, 1189.77 430.11, 1189.88 429.70 C 1189.99 429.28, 1189.46 429.28, 1188.49 429.87 C 1187.51 430.47, 1186.51 431.12, 1184.99 432.67 C 1183.47 434.23, 1182.39 435.58, 1180.87 437.66 C 1179.35 439.73, 1178.43 441.12, 1177.38 443.06 C 1176.33 445.00, 1175.80 445.98, 1175.63 447.36 C 1175.45 448.74, 1175.67 449.40, 1176.50 449.97 C 1177.33 450.53, 1178.19 450.69, 1179.77 450.19 C 1181.35 449.69, 1182.48 448.98, 1184.41 447.47 C 1186.34 445.95, 1187.30 444.58, 1189.43 442.60 C 1191.55 440.63, 1192.86 439.44, 1195.05 437.59 C 1197.24 435.74, 1198.45 434.79, 1200.36 433.36 C 1202.27 431.92, 1203.09 431.27, 1204.60 430.42 C 1206.12 429.57, 1206.73 429.37, 1207.92 429.10 C 1209.10 428.83, 1209.54 428.87, 1210.54 429.06 C 1211.54 429.24, 1211.91 429.53, 1212.92 430.03 C 1213.93 430.53, 1214.45 430.93, 1215.58 431.55 C 1216.71 432.18, 1217.35 432.53, 1218.57 433.14 C 1219.80 433.75, 1220.46 434.06, 1221.70 434.61 C 1222.93 435.16, 1223.59 435.40, 1224.74 435.90 C 1225.89 436.39, 1226.46 436.75, 1227.43 437.10 C 1228.40 437.45, 1229.04 437.52, 1229.61 437.67 C 1230.18 437.82, 1230.35 437.57, 1230.28 437.85 C 1230.21 438.12, 1229.90 438.28, 1229.28 439.04 C 1228.66 439.81, 1228.17 440.45, 1227.20 441.68 C 1226.23 442.90, 1225.54 443.76, 1224.44 445.17 C 1223.34 446.58, 1222.53 447.41, 1221.70 448.73 C 1220.88 450.06, 1220.44 450.77, 1220.32 451.78 C 1220.20 452.80, 1220.47 453.35, 1221.09 453.80 C 1221.71 454.25, 1222.37 454.40, 1223.42 454.03 C 1224.48 453.66, 1225.13 453.13, 1226.38 451.93 C 1227.64 450.74, 1228.21 449.76, 1229.71 448.07 C 1231.20 446.37, 1232.07 445.28, 1233.87 443.46 C 1235.66 441.65, 1236.74 440.65, 1238.68 438.99 C 1240.62 437.34, 1241.67 436.51, 1243.55 435.18 C 1245.43 433.85, 1246.40 433.21, 1248.09 432.34 C 1249.78 431.47, 1250.51 431.20, 1251.99 430.82 C 1253.46 430.43, 1254.09 430.43, 1255.45 430.39 C 1256.82 430.35, 1257.46 430.47, 1258.80 430.62 C 1260.14 430.77, 1260.76 430.94, 1262.15 431.16 C 1263.54 431.37, 1264.28 431.51, 1265.74 431.68 C 1267.21 431.86, 1268.00 431.93, 1269.48 432.03 C 1270.97 432.13, 1271.83 432.25, 1273.16 432.18 C 1274.50 432.11, 1275.33 431.93, 1276.14 431.68 C 1276.95 431.43, 1277.14 431.00, 1277.20 430.93 C 1277.26 430.85, 1277.01 430.72, 1276.43 431.30 C 1275.84 431.89, 1275.28 432.45, 1274.25 433.85 C 1273.23 435.26, 1272.48 436.33, 1271.30 438.32 C 1270.12 440.32, 1269.33 441.66, 1268.35 443.83 C 1267.37 446.00, 1266.80 447.19, 1266.40 449.18 C 1266.01 451.17, 1265.91 452.18, 1266.36 453.78 C 1266.80 455.39, 1267.28 456.20, 1268.62 457.19 C 1269.97 458.18, 1270.99 458.59, 1273.08 458.73 C 1275.17 458.87, 1276.51 458.66, 1279.08 457.89 C 1281.64 457.13, 1283.01 456.34, 1285.93 454.91 C 1288.84 453.47, 1290.44 452.49, 1293.65 450.70 C 1296.86 448.91, 1298.69 447.86, 1301.97 445.95 C 1305.25 444.05, 1306.99 443.00, 1310.05 441.19 C 1313.11 439.39, 1314.77 438.59, 1317.26 436.94 C 1319.75 435.29, 1320.95 434.46, 1322.50 432.93 C 1324.05 431.40, 1324.61 430.62, 1325.00 429.30 C 1325.40 427.99, 1325.20 427.24, 1324.45 426.36 C 1323.71 425.48, 1322.85 425.00, 1321.27 424.92 C 1319.69 424.83, 1318.57 425.00, 1316.55 425.94 C 1314.54 426.87, 1313.29 427.82, 1311.20 429.58 C 1309.10 431.33, 1307.91 432.53, 1306.08 434.71 C 1304.26 436.90, 1303.24 438.16, 1302.07 440.52 C 1300.90 442.88, 1300.35 444.23, 1300.23 446.50 C 1300.12 448.77, 1300.40 450.03, 1301.52 451.89 C 1302.64 453.76, 1303.58 454.70, 1305.83 455.83 C 1308.07 456.97, 1309.60 457.43, 1312.76 457.59 C 1315.91 457.74, 1317.80 457.26, 1321.60 456.62 C 1325.41 455.97, 1327.61 455.42, 1331.78 454.35 C 1335.95 453.28, 1338.28 452.57, 1342.46 451.26 C 1346.63 449.95, 1348.87 449.12, 1352.66 447.80 C 1356.45 446.47, 1358.41 445.87, 1361.42 444.64 C 1364.43 443.41, 1365.85 442.87, 1367.70 441.64 C 1369.55 440.41, 1370.18 439.70, 1370.67 438.49 C 1371.16 437.28, 1370.95 436.50, 1370.15 435.59 C 1369.34 434.68, 1368.41 434.10, 1366.63 433.94 C 1364.86 433.78, 1363.54 433.99, 1361.27 434.79 C 1359.01 435.59, 1357.70 436.43, 1355.31 437.92 C 1352.92 439.42, 1351.54 440.41, 1349.34 442.26 C 1347.14 444.12, 1345.92 445.21, 1344.30 447.18 C 1342.68 449.15, 1341.94 450.23, 1341.23 452.10 C 1340.52 453.97, 1340.36 454.96, 1340.74 456.52 C 1341.12 458.08, 1341.68 459.01, 1343.14 459.90 C 1344.59 460.78, 1345.77 461.09, 1348.02 460.94 C 1350.26 460.80, 1351.66 460.49, 1354.38 459.18 C 1357.09 457.86, 1358.50 456.63, 1361.58 454.38 C 1364.65 452.13, 1366.39 450.76, 1369.75 447.92 C 1373.11 445.09, 1374.96 443.44, 1378.38 440.21 C 1381.79 436.98, 1383.58 435.13, 1386.84 431.75 C 1390.10 428.38, 1391.78 426.52, 1394.69 423.34 C 1397.59 420.15, 1399.31 418.53, 1401.36 415.84 C 1403.40 413.14, 1404.37 411.70, 1404.91 409.86 C 1405.45 408.01, 1405.07 407.03, 1404.05 406.59 C 1403.02 406.16, 1401.67 406.20, 1399.78 407.69 C 1397.89 409.18, 1396.77 410.89, 1394.60 414.02 C 1392.44 417.16, 1391.21 419.45, 1388.97 423.35 C 1386.73 427.25, 1385.34 429.51, 1383.40 433.52 C 1381.46 437.52, 1380.42 439.62, 1379.26 443.36 C 1378.11 447.11, 1377.59 448.96, 1377.62 452.26 C 1377.65 455.55, 1377.99 457.26, 1379.43 459.84 C 1380.87 462.42, 1382.11 463.66, 1384.82 465.17 C 1387.52 466.69, 1389.42 467.03, 1392.95 467.41 C 1396.48 467.80, 1398.49 467.57, 1402.47 467.11 C 1406.45 466.64, 1409.08 465.99, 1412.86 465.09 C 1416.64 464.20, 1418.65 463.75, 1421.36 462.61 C 1424.07 461.48, 1425.54 460.42, 1426.42 459.43 C 1427.31 458.44, 1427.07 457.88, 1425.79 457.67 C 1424.51 457.46, 1422.82 457.77, 1420.03 458.37 C 1417.23 458.97, 1415.42 459.81, 1411.81 460.67 C 1408.20 461.53, 1405.62 462.24, 1401.96 462.65 C 1398.29 463.06, 1396.46 463.07, 1393.47 462.73 C 1390.49 462.40, 1389.11 461.95, 1387.03 460.96 C 1384.96 459.96, 1384.13 459.50, 1383.12 457.75 C 1382.11 456.00, 1381.98 454.87, 1381.97 452.22 C 1381.95 449.57, 1382.07 447.89, 1383.04 444.49 C 1384.02 441.09, 1384.94 439.00, 1386.85 435.22 C 1388.76 431.45, 1390.21 429.23, 1392.62 425.60 C 1395.03 421.98, 1396.73 420.04, 1398.90 417.10 C 1401.08 414.16, 1402.45 412.84, 1403.51 410.89 C 1404.57 408.95, 1404.52 407.96, 1404.20 407.38 C 1403.88 406.81, 1403.19 406.89, 1401.91 408.04 C 1400.64 409.18, 1399.81 410.54, 1397.81 413.12 C 1395.81 415.70, 1394.61 417.68, 1391.92 420.94 C 1389.24 424.19, 1387.56 426.04, 1384.37 429.38 C 1381.18 432.71, 1379.39 434.52, 1375.97 437.61 C 1372.56 440.71, 1370.69 442.29, 1367.29 444.84 C 1363.90 447.39, 1362.10 448.64, 1358.99 450.38 C 1355.89 452.13, 1354.19 452.52, 1351.79 453.57 C 1349.38 454.62, 1348.45 455.04, 1346.97 455.63 C 1345.49 456.21, 1345.02 456.39, 1344.41 456.50 C 1343.80 456.61, 1343.75 456.62, 1343.92 456.18 C 1344.09 455.75, 1344.36 455.35, 1345.24 454.31 C 1346.13 453.27, 1346.79 452.43, 1348.36 450.98 C 1349.93 449.53, 1351.06 448.56, 1353.11 447.06 C 1355.17 445.57, 1356.48 444.70, 1358.62 443.51 C 1360.77 442.31, 1362.03 441.95, 1363.84 441.09 C 1365.65 440.22, 1366.55 439.91, 1367.67 439.18 C 1368.78 438.45, 1369.18 437.94, 1369.42 437.44 C 1369.66 436.94, 1369.63 436.63, 1368.86 436.68 C 1368.09 436.74, 1367.42 436.95, 1365.58 437.70 C 1363.73 438.46, 1362.49 439.18, 1359.63 440.46 C 1356.77 441.74, 1354.96 442.68, 1351.30 444.11 C 1347.64 445.54, 1345.42 446.37, 1341.33 447.63 C 1337.24 448.89, 1334.92 449.54, 1330.85 450.42 C 1326.79 451.29, 1324.56 451.69, 1321.00 452.00 C 1317.44 452.31, 1315.71 452.12, 1313.05 451.97 C 1310.39 451.83, 1309.32 451.73, 1307.70 451.28 C 1306.08 450.83, 1305.55 450.54, 1304.93 449.70 C 1304.32 448.87, 1304.27 448.37, 1304.64 447.09 C 1305.01 445.82, 1305.57 444.95, 1306.77 443.31 C 1307.98 441.67, 1308.92 440.60, 1310.65 438.90 C 1312.39 437.20, 1313.59 436.25, 1315.44 434.81 C 1317.29 433.37, 1318.46 432.76, 1319.90 431.68 C 1321.34 430.59, 1321.92 430.17, 1322.64 429.38 C 1323.37 428.59, 1323.54 428.10, 1323.51 427.72 C 1323.48 427.34, 1323.30 427.17, 1322.51 427.48 C 1321.71 427.80, 1321.14 428.24, 1319.53 429.30 C 1317.91 430.35, 1316.81 431.14, 1314.44 432.76 C 1312.08 434.38, 1310.64 435.51, 1307.71 437.39 C 1304.78 439.26, 1303.03 440.32, 1299.79 442.14 C 1296.54 443.97, 1294.70 444.99, 1291.49 446.53 C 1288.27 448.07, 1286.56 448.77, 1283.71 449.86 C 1280.87 450.94, 1279.45 451.25, 1277.24 451.96 C 1275.03 452.67, 1274.05 453.01, 1272.66 453.42 C 1271.27 453.84, 1270.83 454.05, 1270.29 454.04 C 1269.75 454.03, 1269.77 454.00, 1269.96 453.37 C 1270.15 452.74, 1270.46 452.20, 1271.24 450.89 C 1272.01 449.59, 1272.63 448.63, 1273.82 446.83 C 1275.02 445.03, 1275.99 443.89, 1277.22 441.89 C 1278.44 439.90, 1279.24 438.76, 1279.96 436.85 C 1280.68 434.94, 1280.89 433.92, 1280.81 432.33 C 1280.73 430.74, 1280.39 430.00, 1279.56 428.89 C 1278.73 427.79, 1277.94 427.28, 1276.66 426.81 C 1275.37 426.33, 1274.50 426.57, 1273.12 426.52 C 1271.75 426.47, 1271.13 426.59, 1269.76 426.55 C 1268.39 426.51, 1267.67 426.42, 1266.27 426.31 C 1264.88 426.20, 1264.19 426.14, 1262.78 426.01 C 1261.36 425.88, 1260.70 425.73, 1259.19 425.67 C 1257.67 425.60, 1256.87 425.55, 1255.21 425.67 C 1253.54 425.79, 1252.73 425.83, 1250.87 426.25 C 1249.02 426.67, 1248.02 426.90, 1245.95 427.78 C 1243.89 428.66, 1242.74 429.31, 1240.56 430.65 C 1238.38 431.99, 1237.24 432.82, 1235.05 434.48 C 1232.86 436.15, 1231.67 437.15, 1229.62 438.96 C 1227.57 440.77, 1226.50 441.79, 1224.81 443.52 C 1223.12 445.26, 1222.20 446.07, 1221.18 447.65 C 1220.16 449.22, 1219.79 450.13, 1219.69 451.39 C 1219.60 452.65, 1220.00 453.33, 1220.69 453.95 C 1221.37 454.57, 1222.03 454.74, 1223.13 454.49 C 1224.22 454.24, 1224.89 453.73, 1226.16 452.70 C 1227.44 451.67, 1228.21 450.81, 1229.49 449.33 C 1230.78 447.85, 1231.62 446.95, 1232.58 445.28 C 1233.55 443.62, 1233.99 442.65, 1234.31 441.01 C 1234.64 439.37, 1234.61 438.46, 1234.21 437.07 C 1233.82 435.67, 1233.23 434.97, 1232.32 434.02 C 1231.41 433.07, 1230.74 432.91, 1229.66 432.30 C 1228.58 431.70, 1228.07 431.54, 1226.93 431.01 C 1225.79 430.48, 1225.15 430.22, 1223.97 429.67 C 1222.79 429.11, 1222.24 428.83, 1221.05 428.22 C 1219.86 427.62, 1219.29 427.23, 1218.02 426.65 C 1216.74 426.07, 1216.05 425.73, 1214.65 425.34 C 1213.25 424.95, 1212.52 424.78, 1211.01 424.70 C 1209.49 424.61, 1208.76 424.61, 1207.08 424.91 C 1205.39 425.21, 1204.53 425.41, 1202.59 426.21 C 1200.64 427.02, 1199.59 427.57, 1197.37 428.93 C 1195.15 430.29, 1193.91 431.27, 1191.49 433.02 C 1189.06 434.77, 1187.59 435.84, 1185.23 437.68 C 1182.88 439.52, 1181.44 440.46, 1179.72 442.22 C 1177.99 443.98, 1177.26 445.06, 1176.60 446.46 C 1175.95 447.86, 1176.03 448.62, 1176.43 449.23 C 1176.82 449.84, 1177.42 449.98, 1178.59 449.51 C 1179.76 449.04, 1180.64 448.37, 1182.27 446.88 C 1183.90 445.40, 1185.09 444.20, 1186.73 442.10 C 1188.38 440.00, 1189.47 438.58, 1190.48 436.40 C 1191.49 434.23, 1191.86 432.91, 1191.80 431.22 C 1191.75 429.53, 1191.40 428.63, 1190.22 427.96 C 1189.03 427.29, 1187.95 427.24, 1185.86 427.89 C 1183.77 428.53, 1182.40 429.58, 1179.76 431.19 C 1177.11 432.81, 1175.63 434.13, 1172.65 435.96 C 1169.68 437.78, 1167.91 438.84, 1164.88 440.33 C 1161.86 441.81, 1160.08 442.36, 1157.53 443.38 C 1154.98 444.41, 1153.84 444.88, 1152.13 445.47 C 1150.41 446.05, 1149.78 446.22, 1148.96 446.30 C 1148.14 446.39, 1147.96 446.41, 1148.03 445.91 C 1148.10 445.40, 1148.48 444.92, 1149.31 443.77 C 1150.14 442.62, 1151.16 441.80, 1152.18 440.15 C 1153.21 438.49, 1153.89 437.26, 1154.43 435.51 C 1154.98 433.75, 1155.17 432.54, 1154.90 431.37 C 1154.64 430.20, 1154.25 429.67, 1153.12 429.66 C 1151.99 429.65, 1151.08 430.04, 1149.24 431.32 C 1147.41 432.60, 1146.28 434.06, 1143.93 436.09 C 1141.58 438.11, 1140.19 439.48, 1137.51 441.43 C 1134.83 443.38, 1133.16 444.33, 1130.52 445.84 C 1127.88 447.36, 1126.34 447.86, 1124.32 448.98 C 1122.30 450.10, 1121.51 450.68, 1120.43 451.45 C 1119.35 452.21, 1119.02 452.64, 1118.91 452.81 C 1118.80 452.98, 1119.00 452.98, 1119.88 452.29 C 1120.76 451.60, 1121.53 450.96, 1123.33 449.36 C 1125.12 447.76, 1126.24 446.38, 1128.87 444.31 C 1131.50 442.23, 1133.37 440.94, 1136.47 438.98 C 1139.57 437.01, 1141.70 436.18, 1144.36 434.50 C 1147.02 432.82, 1148.42 431.98, 1149.79 430.58 C 1151.15 429.18, 1151.43 428.26, 1151.18 427.49 C 1150.93 426.72, 1150.23 426.40, 1148.55 426.74 C 1146.86 427.09, 1145.43 427.78, 1142.75 429.22 C 1140.08 430.65, 1138.50 431.95, 1135.18 433.92 C 1131.86 435.88, 1129.81 437.05, 1126.15 439.04 C 1122.48 441.03, 1120.42 442.18, 1116.85 443.87 C 1113.28 445.56, 1111.36 446.35, 1108.30 447.48 C 1105.23 448.62, 1103.71 448.89, 1101.54 449.55 C 1099.37 450.22, 1098.57 450.61, 1097.45 450.80 C 1096.33 451.00, 1096.15 451.04, 1095.94 450.54 C 1095.74 450.04, 1095.96 449.54, 1096.44 448.29 C 1096.93 447.04, 1097.46 446.14, 1098.36 444.31 C 1099.26 442.47, 1100.18 441.26, 1100.96 439.11 C 1101.74 436.95, 1102.20 435.55, 1102.27 433.52 C 1102.34 431.50, 1102.18 430.34, 1101.32 428.99 C 1100.47 427.64, 1099.74 427.08, 1097.99 426.78 C 1096.24 426.48, 1095.01 426.61, 1092.57 427.48 C 1090.14 428.35, 1088.71 429.42, 1085.82 431.13 C 1082.93 432.84, 1081.21 434.11, 1078.13 436.03 C 1075.05 437.94, 1073.23 439.04, 1070.41 440.69 C 1067.59 442.34, 1066.01 443.00, 1064.02 444.30 C 1062.02 445.60, 1061.28 446.34, 1060.42 447.18 C 1059.56 448.01, 1059.57 448.43, 1059.73 448.49 C 1059.89 448.54, 1060.44 448.36, 1061.23 447.44 C 1062.03 446.53, 1062.67 445.61, 1063.72 443.91 C 1064.76 442.22, 1065.53 441.04, 1066.45 438.96 C 1067.37 436.87, 1068.03 435.55, 1068.32 433.49 C 1068.61 431.42, 1068.50 430.19, 1067.89 428.63 C 1067.28 427.06, 1066.75 426.30, 1065.27 425.66 C 1063.78 425.03, 1062.69 424.92, 1060.47 425.45 C 1058.26 425.97, 1056.88 426.72, 1054.20 428.30 C 1051.52 429.88, 1049.98 431.19, 1047.08 433.34 C 1044.18 435.49, 1042.54 436.85, 1039.71 439.07 C 1036.87 441.29, 1035.05 442.38, 1032.91 444.44 C 1030.77 446.51, 1029.88 447.74, 1028.99 449.39 C 1028.11 451.04, 1028.19 451.92, 1028.48 452.70 C 1028.77 453.48, 1029.38 453.70, 1030.45 453.29 C 1031.51 452.88, 1032.34 452.22, 1033.80 450.64 C 1035.26 449.05, 1036.17 447.70, 1037.74 445.35 C 1039.31 443.00, 1040.35 441.48, 1041.66 438.90 C 1042.97 436.32, 1043.65 434.89, 1044.30 432.44 C 1044.94 429.99, 1045.14 428.71, 1044.87 426.64 C 1044.61 424.58, 1044.12 423.51, 1042.96 422.12 C 1041.80 420.74, 1040.78 420.27, 1039.08 419.72 C 1037.38 419.16, 1036.34 419.20, 1034.45 419.35 C 1032.56 419.49, 1031.53 419.84, 1029.63 420.43 C 1027.74 421.03, 1026.81 421.49, 1024.99 422.32 C 1023.17 423.15, 1022.18 423.55, 1020.52 424.56 C 1018.87 425.58, 1017.93 426.24, 1016.71 427.40 C 1015.49 428.56, 1015.00 429.25, 1014.44 430.38 C 1013.87 431.50, 1013.66 432.20, 1013.90 433.03 C 1014.14 433.85, 1014.83 434.34, 1015.63 434.50" style="stroke: black; fill: black;"/></svg>